<svg width="529" height="227" viewBox="0 0 529 227" fill="none" xmlns="http://www.w3.org/2000/svg">
<path d="M169.84 84.919C169.84 38.019 131.82 0 84.92 0C38.021 0 0 38.019 0 84.919C0 131.819 38.021 169.839 84.92 169.839C131.82 169.839 169.84 131.819 169.84 84.919Z" transform="translate(0 226.452) scale(1.33333 -1.33333)" fill="#EAC011"/>
<path d="M17.333 8.667C17.333 3.881 13.453 0 8.667 0C3.881 0 0 3.881 0 8.667C0 13.454 3.881 17.334 8.667 17.334C13.453 17.334 17.333 13.454 17.333 8.667Z" transform="translate(505.369 129.405) scale(1.33333 -1.33333)" fill="#EAC011"/>
<path d="M32.447 7.097V0H18.545C15.897 0 13.872 0.137 12.47 0.41C7.584 1.363 4.108 4.099 2.045 8.616C0.680998 11.634 0 15.372 0 19.83C0 25.185 1.042 29.546 3.125 32.914C4.624 35.328 6.635 37.091 9.156 38.201C11.676 39.31 14.943 39.865 18.954 39.865H32.447V32.768H19.918C16.121 32.768 13.337 31.756 11.565 29.731C10.105 28.056 9.375 25.019 9.375 20.619C9.375 14.739 10.513 10.874 12.792 9.025C14.388 7.74 16.871 7.097 20.239 7.097H32.447Z" transform="translate(234.271 97.5109) scale(1.33333 -1.33333)" fill="#EAC011"/>
<path d="M21.407 30.286L15.713 16.326H27.073L21.407 30.286ZM0 0L16.501 39.865H26.284L42.785 0H32.826L28.971 9.229H13.814L9.959 0H0Z" transform="translate(281.349 97.5111) scale(1.33333 -1.33333)" fill="#EAC011"/>
<path d="M8.47 32.768V7.097H16.91C20.61 7.097 23.179 7.924 24.62 9.579C25.496 10.592 26.202 12.037 26.738 13.916C27.273 15.795 27.541 17.795 27.541 19.918C27.541 22.254 27.224 24.405 26.592 26.372C25.958 28.338 25.116 29.799 24.066 30.753C22.547 32.096 20.161 32.768 16.91 32.768H8.47ZM0 39.865H16.91C21.135 39.865 24.406 39.446 26.723 38.609C30.987 37.071 33.829 34.228 35.251 30.081C36.341 26.907 36.886 23.5 36.886 19.859C36.886 16.257 36.37 12.86 35.338 9.667C34.307 6.396 32.583 3.991 30.169 2.453C28.651 1.479 26.991 0.828002 25.19 0.497002C23.389 0.165002 20.629 0 16.91 0H0V39.865Z" transform="translate(344.12 97.5104) scale(1.33333 -1.33333)" fill="#EAC011"/>
<path d="M32.067 39.865V32.768H20.998C18.097 32.768 15.989 32.569 14.675 32.17C13.361 31.77 12.265 30.996 11.389 29.848C10.805 29.069 10.406 28.281 10.192 27.482C9.978 26.684 9.793 25.321 9.637 23.393H32.067V16.297H9.637C9.929 12.85 10.931 10.456 12.645 9.112C14.359 7.769 17.269 7.097 21.378 7.097H32.067V0H20.998C18 0 15.362 0.185 13.084 0.555C9.501 1.139 6.648 2.706 4.526 5.257C1.508 8.917 0 13.882 0 20.152C0 27.102 2.131 32.505 6.395 36.361C7.856 37.665 9.413 38.575 11.068 39.091C12.723 39.607 14.943 39.865 17.727 39.865H32.067Z" transform="translate(398.403 97.5109) scale(1.33333 -1.33333)" fill="#EAC011"/>
<path d="M1.898 0V7.097H20.093C23.013 7.097 24.96 7.389 25.934 7.973C27.335 8.81 28.037 10.066 28.037 11.74C28.037 13.668 27.219 15.08 25.584 15.975C24.649 16.481 23.16 16.734 21.115 16.734H13.726C9.209 16.734 5.958 17.552 3.972 19.187C2.725 20.22 1.752 21.519 1.051 23.086C0.35 24.654 0 26.323 0 28.095C0 30.899 0.818 33.459 2.454 35.776C4.049 38.015 6.61 39.319 10.134 39.689C11.322 39.806 13.093 39.865 15.45 39.865H35.221V32.768H17.377C14.71 32.749 12.938 32.631 12.062 32.417C10.27 31.97 9.375 30.616 9.375 28.358C9.375 26.45 10.125 25.165 11.624 24.503C12.636 24.055 14.31 23.831 16.647 23.831H23.043C26.314 23.831 28.757 23.549 30.373 22.984C33.196 22.03 35.133 20.356 36.185 17.961C37.042 16.034 37.47 13.97 37.47 11.77C37.47 9.355 36.915 7.185 35.805 5.257C34.248 2.531 31.901 0.905 28.767 0.38C27.249 0.126 24.97 0 21.933 0H1.898Z" transform="translate(447.428 97.5105) scale(1.33333 -1.33333)" fill="#EAC011"/>
<path d="M8.605 1.361V0H5.288C4.338 0 3.585 0.0779999 3.027 0.235C1.917 0.548 1.097 1.283 0.570999 2.441C0.189999 3.27 0 4.211 0 5.264C0 6.511 0.258 7.609 0.774 8.558C1.202 9.345 1.742 9.896 2.393 10.208C3.045 10.521 3.979 10.678 5.194 10.678H8.605V9.317H5.288C4.563 9.317 4.015 9.26 3.645 9.149C3.275 9.036 2.964 8.829 2.714 8.527C2.432 8.193 2.212 7.733 2.053 7.146C1.894 6.559 1.815 5.916 1.815 5.217C1.815 3.898 2.123 2.891 2.738 2.198C3.025 1.875 3.358 1.654 3.739 1.537C4.12 1.42 4.683 1.361 5.428 1.361H8.605Z" transform="translate(236.693 149.042) scale(1.33333 -1.33333)" fill="#EAC011"/>
<path d="M2.949 8.762L4.443 10.788H6.047L4.138 8.762H2.949ZM6.329 4.616V3.387H1.65C1.64 2.683 1.82 2.138 2.19 1.753C2.378 1.554 2.61 1.418 2.887 1.342C3.163 1.266 3.562 1.228 4.084 1.228H6.329V0H3.661C2.994 0 2.474 0.0509999 2.104 0.153C1.734 0.255 1.403 0.438 1.111 0.704C0.37 1.372 0 2.386 0 3.747C0 5.406 0.563 6.576 1.689 7.26C2.279 7.619 3.077 7.8 4.084 7.8H6.329V6.572H4.31C3.768 6.572 3.348 6.53 3.051 6.446C2.754 6.363 2.498 6.217 2.284 6.008C1.961 5.69 1.75 5.226 1.65 4.616H6.329Z" transform="translate(249.648 149.043) scale(1.33333 -1.33333)" fill="#EAC011"/>
<path d="M2.06534 14.2373H0V0H2.06534V14.2373Z" transform="translate(260.526 134.805)" fill="#EAC011"/>
<path d="M5.187 1.228V7.799H6.736V0H3.333C2.801 0 2.406 0.017 2.148 0.051C1.889 0.085 1.641 0.151 1.401 0.25C0.9 0.454 0.541 0.782 0.325 1.236C0.109 1.69 0 2.342 0 3.192V7.799H1.549V3.247C1.544 2.568 1.62 2.099 1.776 1.838C2.021 1.432 2.584 1.228 3.466 1.228H5.187Z" transform="translate(265.407 149.042) scale(1.33333 -1.33333)" fill="#EAC011"/>
<path d="M2.06534 14.2373H0V0H2.06534V14.2373Z" transform="translate(277.339 134.805)" fill="#EAC011"/>
<path d="M5.727 3.528H3.138C2.689 3.528 2.356 3.481 2.136 3.387C1.782 3.231 1.605 2.891 1.605 2.37C1.605 1.953 1.72 1.658 1.953 1.486C2.184 1.314 2.58 1.228 3.138 1.228H5.727V3.528ZM5.727 4.756C5.727 5.549 5.626 6.049 5.425 6.258C5.225 6.466 4.739 6.571 3.967 6.571H0.298V7.799H4.303C4.997 7.799 5.529 7.745 5.899 7.639C6.27 7.532 6.564 7.345 6.784 7.079C6.971 6.855 7.1 6.589 7.17 6.281C7.241 5.974 7.276 5.523 7.276 4.928V0H3.333C2.593 0 2.095 0.0260001 1.839 0.0780001C1.245 0.193 0.79 0.445 0.474 0.837C0.159 1.228 0 1.731 0 2.346C0 2.8 0.0870003 3.208 0.259 3.571C0.431 3.933 0.671 4.211 0.979 4.404C1.354 4.638 2.011 4.756 2.95 4.756H5.727Z" transform="translate(281.74 149.042) scale(1.33333 -1.33333)" fill="#EAC011"/>
<path d="M5.515 9.403L3.466 4.154H7.463L5.515 9.403ZM0 0L4.42 10.678H6.665L10.913 0H9.098L8.011 2.793H2.95L1.815 0H0Z" transform="translate(298.2 149.043) scale(1.33333 -1.33333)" fill="#EAC011"/>
<path d="M6.431 7.799V6.571H3.951C3.455 6.571 3.062 6.513 2.77 6.399C2.478 6.284 2.241 6.096 2.058 5.836C1.755 5.392 1.604 4.743 1.604 3.887C1.604 2.865 1.821 2.138 2.253 1.705C2.572 1.387 3.137 1.228 3.951 1.228H6.431V0H3.951C3.137 0 2.503 0.07 2.05 0.211C1.304 0.441 0.746 0.986 0.376 1.846C0.125 2.435 0 3.071 0 3.755C0 5.017 0.342 6.021 1.025 6.766C1.374 7.142 1.77 7.408 2.21 7.564C2.651 7.721 3.231 7.799 3.951 7.799H6.431Z" transform="translate(313.188 149.042) scale(1.33333 -1.33333)" fill="#EAC011"/>
<path d="M5.727 3.528H3.137C2.689 3.528 2.355 3.481 2.136 3.387C1.782 3.231 1.604 2.891 1.604 2.37C1.604 1.953 1.72 1.658 1.953 1.486C2.184 1.314 2.58 1.228 3.137 1.228H5.727V3.528ZM5.727 4.756C5.727 5.549 5.626 6.049 5.425 6.258C5.225 6.466 4.739 6.571 3.967 6.571H0.298V7.799H4.303C4.997 7.799 5.529 7.745 5.899 7.639C6.269 7.532 6.564 7.345 6.783 7.079C6.971 6.855 7.1 6.589 7.17 6.281C7.241 5.974 7.276 5.523 7.276 4.928V0H3.333C2.592 0 2.094 0.0260001 1.839 0.0780001C1.245 0.193 0.79 0.445 0.474 0.837C0.159 1.228 0 1.731 0 2.346C0 2.8 0.0860003 3.208 0.259 3.571C0.431 3.933 0.67 4.211 0.979 4.404C1.354 4.638 2.011 4.756 2.95 4.756H5.727Z" transform="translate(323.337 149.042) scale(1.33333 -1.33333)" fill="#EAC011"/>
<path d="M5.711 1.228V6.571H4.045C3.523 6.571 3.111 6.511 2.809 6.391C2.506 6.271 2.256 6.068 2.058 5.781C1.755 5.343 1.604 4.722 1.604 3.919C1.604 2.934 1.768 2.239 2.097 1.834C2.425 1.43 2.988 1.228 3.786 1.228H5.711ZM5.711 7.799V10.678H7.26V0H3.794C3.111 0 2.567 0.052 2.163 0.156C1.759 0.261 1.413 0.438 1.127 0.688C0.777 0.991 0.502 1.415 0.302 1.959C0.101 2.504 0 3.101 0 3.747C0 4.561 0.151 5.307 0.454 5.984C0.735 6.621 1.151 7.082 1.701 7.369C2.252 7.656 2.991 7.799 3.919 7.799H5.711Z" transform="translate(335.124 149.042) scale(1.33333 -1.33333)" fill="#EAC011"/>
<path d="M3.872 10.052L2.785 8.761H1.416L3.152 10.787H4.592L6.329 8.761H4.96L3.872 10.052ZM6.329 4.615V3.387H1.65C1.641 2.683 1.82 2.138 2.19 1.752C2.378 1.554 2.61 1.417 2.887 1.342C3.163 1.266 3.562 1.228 4.084 1.228H6.329V0H3.661C2.993 0 2.475 0.0510004 2.104 0.152C1.734 0.254 1.403 0.438 1.111 0.704C0.37 1.371 0 2.385 0 3.747C0 5.406 0.563 6.576 1.689 7.26C2.279 7.619 3.077 7.799 4.084 7.799H6.329V6.571H4.31C3.768 6.571 3.349 6.529 3.051 6.446C2.754 6.362 2.498 6.216 2.284 6.008C1.961 5.69 1.75 5.225 1.65 4.615H6.329Z" transform="translate(347.035 149.042) scale(1.33333 -1.33333)" fill="#EAC011"/>
<path d="M0 7.799H6.892C7.841 7.799 8.48 7.766 8.813 7.701C9.144 7.636 9.452 7.484 9.739 7.243C10.026 6.998 10.226 6.7 10.338 6.348C10.449 5.996 10.506 5.486 10.506 4.819V0H8.957V4.819C8.957 5.47 8.825 5.925 8.563 6.184C8.299 6.442 7.838 6.571 7.182 6.571H5.977V0H4.428V6.571H1.549V0H0V7.799Z" transform="translate(357.914 149.042) scale(1.33333 -1.33333)" fill="#EAC011"/>
<path d="M0 3.83734H2.06534V14.236H0V3.83734ZM0 0H2.06534V2.15999H0V0Z" transform="translate(374.729 134.805)" fill="#EAC011"/>
<path d="M6.431 7.799V6.571H3.951C3.455 6.571 3.062 6.513 2.77 6.399C2.478 6.284 2.241 6.096 2.058 5.836C1.755 5.392 1.604 4.743 1.604 3.887C1.604 2.865 1.821 2.138 2.253 1.705C2.572 1.387 3.137 1.228 3.951 1.228H6.431V0H3.951C3.137 0 2.504 0.07 2.05 0.211C1.304 0.441 0.746 0.986 0.376 1.846C0.125 2.435 0 3.071 0 3.755C0 5.017 0.342 6.021 1.026 6.766C1.374 7.142 1.77 7.408 2.21 7.564C2.651 7.721 3.232 7.799 3.951 7.799H6.431Z" transform="translate(379.024 149.042) scale(1.33333 -1.33333)" fill="#EAC011"/>
<path d="M5.727 3.528H3.138C2.689 3.528 2.356 3.481 2.136 3.387C1.782 3.231 1.605 2.891 1.605 2.37C1.605 1.953 1.72 1.658 1.953 1.486C2.184 1.314 2.58 1.228 3.138 1.228H5.727V3.528ZM5.727 4.756C5.727 5.549 5.626 6.049 5.425 6.258C5.225 6.466 4.739 6.571 3.967 6.571H0.298V7.799H4.303C4.997 7.799 5.529 7.745 5.899 7.639C6.269 7.532 6.564 7.345 6.783 7.079C6.971 6.855 7.1 6.589 7.17 6.281C7.241 5.974 7.276 5.523 7.276 4.928V0H3.333C2.593 0 2.095 0.0260001 1.839 0.0780001C1.245 0.193 0.79 0.445 0.474 0.837C0.159 1.228 0 1.731 0 2.346C0 2.8 0.0870003 3.208 0.259 3.571C0.431 3.933 0.671 4.211 0.979 4.404C1.354 4.638 2.011 4.756 2.95 4.756H5.727Z" transform="translate(389.173 149.042) scale(1.33333 -1.33333)" fill="#EAC011"/>
<path d="M5.71 1.228V6.571H4.044C3.522 6.571 3.11 6.511 2.808 6.391C2.506 6.271 2.255 6.068 2.057 5.781C1.755 5.343 1.604 4.722 1.604 3.919C1.604 2.934 1.768 2.239 2.096 1.834C2.425 1.43 2.988 1.228 3.786 1.228H5.71ZM5.71 7.799V10.678H7.259V0H3.794C3.11 0 2.566 0.052 2.163 0.156C1.758 0.261 1.413 0.438 1.126 0.688C0.776 0.991 0.501 1.415 0.301 1.959C0.1 2.504 0 3.101 0 3.747C0 4.561 0.15 5.307 0.453 5.984C0.735 6.621 1.15 7.082 1.701 7.369C2.251 7.656 2.99 7.799 3.919 7.799H5.71Z" transform="translate(406.301 149.042) scale(1.33333 -1.33333)" fill="#EAC011"/>
<path d="M6.328 4.615V3.387H1.65C1.64 2.683 1.819 2.138 2.19 1.752C2.378 1.554 2.609 1.417 2.886 1.342C3.162 1.266 3.561 1.228 4.083 1.228H6.328V0H3.66C2.993 0 2.474 0.0509999 2.103 0.152C1.733 0.254 1.402 0.438 1.11 0.704C0.37 1.371 0 2.386 0 3.747C0 5.406 0.562 6.576 1.689 7.26C2.278 7.619 3.076 7.799 4.083 7.799H6.328V6.571H4.309C3.767 6.571 3.348 6.529 3.051 6.446C2.753 6.362 2.498 6.216 2.284 6.008C1.961 5.69 1.749 5.225 1.65 4.615H6.328Z" transform="translate(418.213 149.042) scale(1.33333 -1.33333)" fill="#EAC011"/>
<path d="M1.705 9.317V1.361H4.428C5.638 1.361 6.485 1.713 6.97 2.417C7.413 3.059 7.635 3.99 7.635 5.21C7.635 6.592 7.38 7.64 6.868 8.355C6.623 8.699 6.304 8.945 5.91 9.094C5.516 9.243 4.983 9.317 4.31 9.317H1.705ZM0 10.678H4.1C5.23 10.678 6.059 10.597 6.587 10.436C7.567 10.128 8.331 9.437 8.879 8.362C9.26 7.607 9.45 6.631 9.45 5.437C9.45 3.053 8.803 1.453 7.51 0.634001C7.113 0.383001 6.696 0.215001 6.258 0.129001C5.82 0.0430007 5.152 0 4.256 0H0V10.678Z" transform="translate(237.507 174.676) scale(1.33333 -1.33333)" fill="#EAC011"/>
<path d="M6.329 4.615V3.387H1.65C1.641 2.683 1.82 2.138 2.19 1.752C2.378 1.554 2.61 1.417 2.887 1.342C3.163 1.266 3.562 1.228 4.084 1.228H6.329V0H3.661C2.994 0 2.475 0.0509999 2.104 0.152C1.734 0.254 1.403 0.438 1.111 0.704C0.37 1.371 0 2.386 0 3.747C0 5.405 0.563 6.576 1.689 7.259C2.279 7.619 3.077 7.799 4.084 7.799H6.329V6.571H4.31C3.768 6.571 3.349 6.529 3.051 6.446C2.754 6.362 2.498 6.216 2.284 6.008C1.961 5.69 1.75 5.225 1.65 4.615H6.329Z" transform="translate(251.577 174.676) scale(1.33333 -1.33333)" fill="#EAC011"/>
<path d="M6.814 7.799V6.571H3.301C2.764 6.571 2.416 6.559 2.256 6.535C2.097 6.512 1.971 6.451 1.877 6.352C1.695 6.169 1.604 5.875 1.604 5.468C1.604 5.077 1.702 4.821 1.897 4.701C2.093 4.581 2.511 4.521 3.153 4.521H4.209C5.069 4.511 5.598 4.495 5.796 4.474C5.995 4.453 6.182 4.388 6.36 4.278C6.881 3.955 7.142 3.306 7.142 2.331C7.142 1.262 6.808 0.56 6.141 0.227C5.959 0.132 5.745 0.0709997 5.5 0.0429997C5.254 0.0139997 4.824 0 4.209 0H0.086V1.228H3.834C4.553 1.228 4.994 1.262 5.155 1.33C5.411 1.439 5.539 1.731 5.539 2.206C5.539 2.706 5.379 2.996 5.061 3.074C4.931 3.111 4.555 3.129 3.935 3.129H3.301C2.466 3.129 1.901 3.153 1.604 3.203C1.306 3.253 1.048 3.369 0.83 3.551C0.277 3.994 0 4.641 0 5.491C0 5.945 0.0910002 6.349 0.274 6.704C0.457 7.058 0.707 7.319 1.025 7.486C1.421 7.695 2.044 7.799 2.894 7.799H6.814Z" transform="translate(261.841 174.675) scale(1.33333 -1.33333)" fill="#EAC011"/>
<path d="M6.328 4.615V3.387H1.65C1.64 2.683 1.819 2.138 2.19 1.752C2.378 1.554 2.609 1.417 2.887 1.342C3.163 1.266 3.561 1.228 4.083 1.228H6.328V0H3.661C2.993 0 2.474 0.0509999 2.103 0.152C1.733 0.254 1.402 0.438 1.11 0.704C0.37 1.371 0 2.386 0 3.747C0 5.405 0.562 6.576 1.689 7.259C2.278 7.619 3.076 7.799 4.083 7.799H6.328V6.571H4.309C3.767 6.571 3.348 6.529 3.051 6.446C2.753 6.362 2.498 6.216 2.284 6.008C1.961 5.69 1.749 5.225 1.65 4.615H6.328Z" transform="translate(272.97 174.676) scale(1.33333 -1.33333)" fill="#EAC011"/>
<path d="M0 7.799H3.605C4.289 7.799 4.835 7.725 5.245 7.576C5.654 7.427 5.984 7.181 6.234 6.837C6.573 6.399 6.748 5.669 6.759 4.646V0H5.21V4.482C5.21 5.264 5.075 5.808 4.807 6.113C4.538 6.418 4.057 6.571 3.363 6.571H1.549V0H0V7.799Z" transform="translate(283.849 174.675) scale(1.33333 -1.33333)" fill="#EAC011"/>
<path d="M4.075 2.01L6.625 7.799H8.253L4.646 0H3.402L0 7.799H1.689L4.075 2.01Z" transform="translate(293.81 174.676) scale(1.33333 -1.33333)" fill="#EAC011"/>
<path d="M3.974 6.688C3.213 6.688 2.627 6.451 2.218 5.976C1.809 5.501 1.604 4.826 1.604 3.95C1.604 3.115 1.771 2.49 2.105 2.072C2.527 1.546 3.14 1.282 3.943 1.282C5.554 1.282 6.361 2.159 6.361 3.911C6.361 4.803 6.156 5.486 5.746 5.96C5.336 6.435 4.746 6.677 3.974 6.688ZM4.068 7.971C5.32 7.971 6.292 7.611 6.986 6.891C7.638 6.218 7.964 5.238 7.964 3.95C7.964 2.75 7.633 1.801 6.97 1.103C6.266 0.367 5.27 0 3.982 0C2.626 0 1.599 0.375 0.9 1.126C0.3 1.762 0 2.669 0 3.848C0 5.089 0.336 6.085 1.009 6.836C1.677 7.582 2.697 7.96 4.068 7.971" transform="translate(305.188 174.79) scale(1.33333 -1.33333)" fill="#EAC011"/>
<path d="M2.06531 14.2373H0V0H2.06531V14.2373Z" transform="translate(318.039 160.439)" fill="#EAC011"/>
<path d="M4.075 2.01L6.625 7.799H8.253L4.646 0H3.402L0 7.799H1.689L4.075 2.01Z" transform="translate(321.659 174.676) scale(1.33333 -1.33333)" fill="#EAC011"/>
<path d="M0 3.83867H2.06534V14.2373H0V3.83867ZM0 0H2.06534V2.16H0V0Z" transform="translate(334.299 160.439)" fill="#EAC011"/>
<path d="M0 7.799H6.893C7.841 7.799 8.481 7.766 8.813 7.701C9.144 7.636 9.453 7.484 9.739 7.243C10.026 6.998 10.226 6.7 10.338 6.348C10.45 5.996 10.506 5.486 10.506 4.819V0H8.957V4.819C8.957 5.47 8.825 5.925 8.563 6.184C8.299 6.442 7.839 6.571 7.182 6.571H5.977V0H4.428V6.571H1.549V0H0V7.799Z" transform="translate(339.327 174.675) scale(1.33333 -1.33333)" fill="#EAC011"/>
<path d="M6.329 4.615V3.387H1.651C1.641 2.683 1.82 2.138 2.19 1.752C2.379 1.554 2.61 1.417 2.887 1.342C3.163 1.266 3.562 1.228 4.084 1.228H6.329V0H3.661C2.994 0 2.475 0.0509999 2.104 0.152C1.734 0.254 1.403 0.438 1.111 0.704C0.371 1.371 0 2.386 0 3.747C0 5.405 0.563 6.576 1.69 7.259C2.279 7.619 3.077 7.799 4.084 7.799H6.329V6.571H4.31C3.768 6.571 3.349 6.529 3.052 6.446C2.754 6.362 2.498 6.216 2.285 6.008C1.961 5.69 1.75 5.225 1.651 4.615H6.329Z" transform="translate(355.41 174.676) scale(1.33333 -1.33333)" fill="#EAC011"/>
<path d="M0 7.799H3.606C4.29 7.799 4.836 7.725 5.246 7.576C5.654 7.427 5.984 7.181 6.235 6.837C6.574 6.399 6.749 5.669 6.759 4.646V0H5.21V4.482C5.21 5.264 5.076 5.808 4.808 6.113C4.539 6.418 4.058 6.571 3.364 6.571H1.549V0H0V7.799Z" transform="translate(366.289 174.675) scale(1.33333 -1.33333)" fill="#EAC011"/>
<path d="M1.486 7.799V10.678H3.035V7.799H5.311V6.571H3.035V2.472C3.035 2.138 3.05 1.901 3.082 1.76C3.113 1.619 3.175 1.512 3.27 1.439C3.431 1.298 3.807 1.228 4.396 1.228H5.311V0H3.809C3.298 0 2.919 0.0309999 2.672 0.0929999C2.423 0.156 2.206 0.278 2.018 0.461C1.82 0.649 1.681 0.881 1.603 1.157C1.525 1.434 1.486 1.828 1.486 2.339V6.571H0V7.799H1.486Z" transform="translate(377.002 174.675) scale(1.33333 -1.33333)" fill="#EAC011"/>
<path d="M3.975 6.688C3.213 6.688 2.627 6.451 2.218 5.976C1.809 5.501 1.604 4.826 1.604 3.95C1.604 3.115 1.771 2.49 2.105 2.072C2.528 1.546 3.14 1.282 3.944 1.282C5.555 1.282 6.361 2.159 6.361 3.911C6.361 4.803 6.156 5.486 5.746 5.96C5.336 6.435 4.746 6.677 3.975 6.688ZM4.069 7.971C5.32 7.971 6.292 7.611 6.987 6.891C7.638 6.218 7.964 5.238 7.964 3.95C7.964 2.75 7.633 1.801 6.971 1.103C6.267 0.367 5.271 0 3.983 0C2.626 0 1.599 0.375 0.9 1.126C0.3 1.762 0 2.669 0 3.848C0 5.089 0.337 6.085 1.01 6.836C1.677 7.582 2.697 7.96 4.069 7.971" transform="translate(385.053 174.79) scale(1.33333 -1.33333)" fill="#EAC011"/>
<path d="M5.71 1.228V6.571H4.044C3.522 6.571 3.11 6.511 2.809 6.391C2.506 6.271 2.255 6.068 2.058 5.781C1.755 5.343 1.604 4.722 1.604 3.919C1.604 2.934 1.768 2.239 2.097 1.834C2.425 1.43 2.988 1.228 3.786 1.228H5.71ZM5.71 7.799V10.678H7.26V0H3.794C3.11 0 2.566 0.052 2.163 0.156C1.759 0.261 1.413 0.438 1.126 0.688C0.777 0.991 0.502 1.415 0.301 1.959C0.1 2.504 0 3.101 0 3.747C0 4.561 0.151 5.307 0.453 5.984C0.735 6.621 1.15 7.082 1.701 7.369C2.251 7.656 2.99 7.799 3.919 7.799H5.71Z" transform="translate(402.514 174.676) scale(1.33333 -1.33333)" fill="#EAC011"/>
<path d="M6.328 4.615V3.387H1.65C1.64 2.683 1.82 2.138 2.19 1.752C2.378 1.554 2.61 1.417 2.887 1.342C3.163 1.266 3.561 1.228 4.083 1.228H6.328V0H3.661C2.993 0 2.474 0.0509999 2.104 0.152C1.733 0.254 1.402 0.438 1.11 0.704C0.37 1.371 0 2.386 0 3.747C0 5.405 0.563 6.576 1.689 7.259C2.278 7.619 3.077 7.799 4.083 7.799H6.328V6.571H4.31C3.767 6.571 3.348 6.529 3.051 6.446C2.753 6.362 2.498 6.216 2.284 6.008C1.961 5.69 1.749 5.225 1.65 4.615H6.328Z" transform="translate(414.426 174.676) scale(1.33333 -1.33333)" fill="#EAC011"/>
<path d="M0.384 0V1.361H4.999C5.708 1.361 6.217 1.45 6.525 1.627C6.994 1.898 7.229 2.36 7.229 3.012C7.229 3.841 6.924 4.354 6.314 4.553C6.042 4.642 5.497 4.686 4.679 4.686H3.786C2.556 4.686 1.675 4.855 1.143 5.194C0.381 5.674 0 6.433 0 7.471C0 8.154 0.175 8.759 0.525 9.286C0.863 9.802 1.303 10.163 1.843 10.369C2.383 10.575 3.148 10.678 4.139 10.678H8.535V9.317H4.139C3.675 9.317 3.319 9.295 3.072 9.25C2.823 9.206 2.609 9.126 2.426 9.012C2.019 8.751 1.816 8.318 1.816 7.713C1.816 7.181 1.993 6.801 2.352 6.571C2.708 6.342 3.304 6.227 4.139 6.227H4.78C5.693 6.227 6.373 6.185 6.821 6.102C7.271 6.018 7.641 5.867 7.933 5.648C8.282 5.382 8.555 5.022 8.75 4.568C8.946 4.115 9.043 3.614 9.043 3.066C9.043 1.804 8.551 0.918 7.565 0.407C7.257 0.25 6.909 0.144 6.521 0.086C6.132 0.029 5.552 0 4.78 0H0.384Z" transform="translate(429.935 174.676) scale(1.33333 -1.33333)" fill="#EAC011"/>
<path d="M3.974 6.688C3.213 6.688 2.627 6.451 2.218 5.976C1.808 5.501 1.604 4.826 1.604 3.95C1.604 3.115 1.771 2.49 2.105 2.072C2.527 1.546 3.14 1.282 3.943 1.282C5.554 1.282 6.361 2.159 6.361 3.911C6.361 4.803 6.156 5.486 5.746 5.96C5.336 6.435 4.746 6.677 3.974 6.688ZM4.068 7.971C5.32 7.971 6.292 7.611 6.986 6.891C7.638 6.218 7.964 5.238 7.964 3.95C7.964 2.75 7.633 1.801 6.97 1.103C6.266 0.367 5.27 0 3.982 0C2.626 0 1.599 0.375 0.9 1.126C0.3 1.762 0 2.669 0 3.848C0 5.089 0.336 6.085 1.009 6.836C1.677 7.582 2.697 7.96 4.068 7.971" transform="translate(443.515 174.79) scale(1.33333 -1.33333)" fill="#EAC011"/>
<path d="M1.377 6.571H0V7.799H1.377V8.143C1.377 9.04 1.575 9.687 1.971 10.083C2.367 10.48 3.015 10.678 3.911 10.678H5.515V9.449H4.114C3.64 9.449 3.323 9.369 3.164 9.207C3.005 9.046 2.926 8.719 2.926 8.229V7.799H5.382V6.571H2.926V0H1.377V6.571Z" transform="translate(455.292 174.675) scale(1.33333 -1.33333)" fill="#EAC011"/>
<path d="M1.486 7.799V10.678H3.035V7.799H5.311V6.571H3.035V2.472C3.035 2.138 3.05 1.901 3.082 1.76C3.113 1.619 3.175 1.512 3.269 1.439C3.431 1.298 3.807 1.228 4.396 1.228H5.311V0H3.809C3.298 0 2.919 0.0309999 2.672 0.0929999C2.423 0.156 2.206 0.278 2.018 0.461C1.82 0.649 1.681 0.881 1.603 1.157C1.525 1.434 1.486 1.828 1.486 2.339V6.571H0V7.799H1.486Z" transform="translate(463.532 174.675) scale(1.33333 -1.33333)" fill="#EAC011"/>
<path d="M4.529 1.228V7.799H6.078V1.228H8.957V7.799H10.506V0H3.246C2.417 0 1.836 0.062 1.502 0.187C0.98 0.386 0.599 0.695 0.36 1.115C0.12 1.535 0 2.102 0 2.816L0.0079999 3.504V7.799H1.556V3.325C1.556 2.792 1.569 2.432 1.591 2.241C1.616 2.051 1.672 1.888 1.759 1.752C1.875 1.559 2.046 1.424 2.272 1.346C2.499 1.267 2.824 1.228 3.246 1.228H4.529Z" transform="translate(472.533 174.676) scale(1.33333 -1.33333)" fill="#EAC011"/>
<path d="M5.727 3.528H3.138C2.689 3.528 2.356 3.481 2.136 3.387C1.782 3.231 1.605 2.892 1.605 2.37C1.605 1.953 1.72 1.658 1.953 1.486C2.184 1.314 2.58 1.228 3.138 1.228H5.727V3.528ZM5.727 4.757C5.727 5.549 5.626 6.05 5.425 6.258C5.225 6.467 4.739 6.571 3.967 6.571H0.298V7.799H4.303C4.997 7.799 5.529 7.746 5.899 7.639C6.269 7.532 6.564 7.346 6.784 7.08C6.971 6.856 7.1 6.59 7.17 6.282C7.241 5.974 7.276 5.523 7.276 4.928V0H3.333C2.593 0 2.095 0.0260001 1.839 0.0780001C1.245 0.193 0.79 0.446 0.474 0.837C0.159 1.228 0 1.732 0 2.347C0 2.8 0.0870003 3.209 0.259 3.571C0.431 3.934 0.671 4.212 0.979 4.404C1.354 4.639 2.011 4.757 2.95 4.757H5.727Z" transform="translate(488.74 174.676) scale(1.33333 -1.33333)" fill="#EAC011"/>
<path d="M0 7.799H2.003C2.645 7.799 3.143 7.755 3.497 7.666C3.852 7.577 4.151 7.424 4.396 7.204C4.631 6.99 4.795 6.725 4.89 6.406C4.983 6.089 5.03 5.632 5.03 5.037V4.278H3.567V5.037C3.567 5.606 3.469 5.992 3.274 6.195C3.078 6.399 2.709 6.5 2.167 6.5H1.549V0H0V7.799Z" transform="translate(501.258 174.675) scale(1.33333 -1.33333)" fill="#EAC011"/>
<path d="M6.329 4.615V3.387H1.65C1.641 2.683 1.82 2.138 2.19 1.752C2.378 1.554 2.61 1.417 2.887 1.342C3.163 1.266 3.561 1.228 4.084 1.228H6.329V0H3.661C2.993 0 2.475 0.0509999 2.104 0.152C1.734 0.254 1.403 0.438 1.111 0.704C0.37 1.371 0 2.386 0 3.747C0 5.405 0.563 6.576 1.689 7.259C2.279 7.619 3.077 7.799 4.084 7.799H6.329V6.571H4.31C3.767 6.571 3.349 6.529 3.051 6.446C2.754 6.362 2.498 6.216 2.284 6.008C1.961 5.69 1.75 5.225 1.65 4.615H6.329Z" transform="translate(509.269 174.676) scale(1.33333 -1.33333)" fill="#EAC011"/>
<path d="M346.816 3.56H0V0H346.816V3.56Z" transform="translate(170.109 116.069)" fill="#EAC011"/>
<path d="M39.937 0L38.35 0.222L45.365 50.444L0 55.481L0.177002 57.073L47.18 51.855L39.937 0Z" transform="translate(117.917 117.997) scale(1.33333 -1.33333)" fill="white"/>
<path d="M8.727 24.267L58.654 2.072L89.755 60.946L41.911 73.14L50.728 115.996L1.707 86.132L8.727 24.267ZM59.372 0L7.239 23.176L0 86.969L53.04 119.28L43.788 74.315L92.122 61.996L59.372 0Z" transform="translate(48.8575 199.811) scale(1.33333 -1.33333)" fill="white"/>
<path d="M0.921 0L0 1.311L55.218 40.093L56.139 38.782L0.921 0Z" transform="translate(105.376 102.381) scale(1.33333 -1.33333)" fill="white"/>
<path d="M66.791 0L24.978 12.767L0.271004 8.534L0 10.113L25.081 14.41L67.259 1.532L66.791 0Z" transform="translate(16.6239 102.528) scale(1.33333 -1.33333)" fill="white"/>
<path d="M33.821 27.916L47.217 1.723L82.945 5.985L67.37 76.032L33.821 27.916ZM46.299 0L32.249 27.472L8.81 47.313L0 86.749L39.563 135.086L77.042 122.656L76.538 121.135L40.105 133.218L1.734 86.338L10.257 48.189L32.735 29.16L68.142 79.94L84.893 4.604L46.299 0Z" transform="translate(15.6489 205.488) scale(1.33333 -1.33333)" fill="white"/>
<path d="M19.65 9.826C19.65 4.399 15.252 0 9.825 0C4.398 0 0 4.399 0 9.826C0 15.252 4.398 19.651 9.825 19.651C15.252 19.651 19.65 15.252 19.65 9.826Z" transform="translate(36.8965 97.5109) scale(1.33333 -1.33333)" fill="white"/>
<path d="M14.259 7.129C14.259 3.191 11.067 0 7.129 0C3.193 0 0 3.191 0 7.129C0 11.066 3.193 14.258 7.129 14.258C11.067 14.258 14.259 11.066 14.259 7.129Z" transform="translate(170.108 59.3023) scale(1.33333 -1.33333)" fill="white"/>
<path d="M14.258 7.129C14.258 3.191 11.067 0 7.129 0C3.193 0 0 3.191 0 7.129C0 11.066 3.193 14.258 7.129 14.258C11.067 14.258 14.258 11.066 14.258 7.129Z" transform="translate(118.035 207.935) scale(1.33333 -1.33333)" fill="white"/>
<path d="M32.231 16.116C32.231 7.215 25.015 0 16.115 0C7.214 0 0 7.215 0 16.116C0 25.016 7.214 32.232 16.115 32.232C25.015 32.232 32.231 25.016 32.231 16.116Z" transform="translate(96.549 64.4484) scale(1.33333 -1.33333)" fill="white"/>
<path d="M11.189 5.595C11.189 2.505 8.684 0 5.594 0C2.504 0 0 2.505 0 5.595C0 8.685 2.504 11.19 5.594 11.19C8.684 11.19 11.189 8.685 11.189 5.595Z" transform="translate(20.9019 149.28) scale(1.33333 -1.33333)" fill="white"/>
<path d="M10.855 5.428C10.855 2.43 8.425 0 5.427 0C2.429 0 0 2.43 0 5.428C0 8.426 2.429 10.856 5.427 10.856C8.425 10.856 10.855 8.426 10.855 5.428Z" transform="translate(98.7533 108.744) scale(1.33333 -1.33333)" fill="white"/>
<path d="M54.267 27.133C54.267 12.148 42.119 0 27.133 0C12.148 0 0 12.148 0 27.133C0 42.118 12.148 54.267 27.133 54.267C42.119 54.267 54.267 42.118 54.267 27.133Z" transform="translate(133.931 154.026) scale(1.33333 -1.33333)" fill="white"/>
</svg>
