<svg width="531" height="231" viewBox="0 0 531 231" fill="none" xmlns="http://www.w3.org/2000/svg">
<path d="M86.522 169.839C40.58 169.839 3.204 132.463 3.204 86.522C3.204 40.58 40.58 3.20401 86.522 3.20401C132.463 3.20401 169.839 40.58 169.839 86.522C169.839 132.463 132.463 169.839 86.522 169.839ZM86.522 0C38.814 0 0 38.813 0 86.522C0 134.23 38.814 173.044 86.522 173.044C134.23 173.044 173.043 134.23 173.043 86.522C173.043 38.813 134.23 0 86.522 0Z" transform="translate(0 230.725) scale(1.33333 -1.33333)" fill="#070742"/>
<path d="M17.333 8.667C17.333 3.881 13.453 0 8.666 0C3.88 0 0 3.881 0 8.667C0 13.454 3.88 17.334 8.666 17.334C13.453 17.334 17.333 13.454 17.333 8.667Z" transform="translate(507.505 131.542) scale(1.33333 -1.33333)" fill="#070742"/>
<path d="M32.447 7.097V0H18.546C15.897 0 13.873 0.137 12.471 0.41C7.584 1.363 4.108 4.099 2.045 8.616C0.681998 11.634 0 15.372 0 19.83C0 25.185 1.042 29.546 3.125 32.914C4.624 35.328 6.635 37.091 9.156 38.201C11.677 39.31 14.943 39.865 18.954 39.865H32.447V32.768H19.918C16.121 32.768 13.337 31.756 11.566 29.731C10.105 28.056 9.375 25.019 9.375 20.619C9.375 14.739 10.514 10.874 12.792 9.025C14.388 7.74 16.871 7.097 20.239 7.097H32.447Z" transform="translate(236.406 99.6481) scale(1.33333 -1.33333)" fill="#070742"/>
<path d="M21.407 30.286L15.712 16.326H27.073L21.407 30.286ZM0 0L16.501 39.865H26.284L42.785 0H32.826L28.971 9.229H13.814L9.959 0H0Z" transform="translate(283.485 99.6483) scale(1.33333 -1.33333)" fill="#070742"/>
<path d="M8.469 32.768V7.097H16.909C20.608 7.097 23.178 7.924 24.619 9.579C25.495 10.592 26.201 12.037 26.737 13.916C27.272 15.795 27.54 17.795 27.54 19.918C27.54 22.254 27.223 24.405 26.591 26.372C25.957 28.338 25.116 29.799 24.064 30.753C22.546 32.096 20.16 32.768 16.909 32.768H8.469ZM0 39.865H16.909C21.134 39.865 24.405 39.446 26.722 38.609C30.986 37.071 33.828 34.228 35.25 30.081C36.34 26.907 36.886 23.5 36.886 19.859C36.886 16.257 36.369 12.86 35.338 9.667C34.305 6.396 32.582 3.991 30.168 2.453C28.65 1.479 26.99 0.828002 25.189 0.497002C23.387 0.165002 20.628 0 16.909 0H0V39.865Z" transform="translate(346.256 99.6476) scale(1.33333 -1.33333)" fill="#070742"/>
<path d="M32.067 39.865V32.768H20.999C18.097 32.768 15.99 32.569 14.675 32.17C13.361 31.77 12.266 30.996 11.39 29.848C10.806 29.069 10.406 28.281 10.192 27.482C9.978 26.684 9.793 25.321 9.638 23.393H32.067V16.297H9.638C9.93 12.85 10.932 10.456 12.646 9.112C14.359 7.769 17.27 7.097 21.378 7.097H32.067V0H20.999C18 0 15.362 0.185 13.084 0.555C9.501 1.139 6.649 2.706 4.527 5.257C1.509 8.918 0 13.883 0 20.152C0 27.102 2.132 32.506 6.396 36.361C7.856 37.665 9.414 38.575 11.069 39.091C12.724 39.607 14.943 39.865 17.728 39.865H32.067Z" transform="translate(400.538 99.6481) scale(1.33333 -1.33333)" fill="#070742"/>
<path d="M1.898 0V7.097H20.092C23.013 7.097 24.96 7.389 25.933 7.973C27.335 8.81 28.036 10.066 28.036 11.741C28.036 13.668 27.218 15.08 25.583 15.975C24.648 16.481 23.159 16.734 21.115 16.734H13.726C9.209 16.734 5.957 17.552 3.971 19.187C2.725 20.22 1.752 21.519 1.051 23.086C0.35 24.654 0 26.323 0 28.095C0 30.899 0.817 33.459 2.453 35.776C4.049 38.015 6.609 39.319 10.133 39.689C11.321 39.806 13.093 39.865 15.449 39.865H35.221V32.768H17.377C14.709 32.749 12.937 32.632 12.061 32.417C10.27 31.97 9.374 30.617 9.374 28.358C9.374 26.45 10.124 25.165 11.623 24.503C12.635 24.055 14.31 23.832 16.646 23.832H23.042C26.313 23.832 28.756 23.549 30.373 22.984C33.195 22.03 35.133 20.356 36.184 17.961C37.041 16.034 37.469 13.97 37.469 11.77C37.469 9.355 36.915 7.185 35.805 5.257C34.247 2.531 31.9 0.905 28.766 0.38C27.248 0.126 24.97 0 21.932 0H1.898Z" transform="translate(449.564 99.6477) scale(1.33333 -1.33333)" fill="#070742"/>
<path d="M8.605 1.361V0H5.288C4.339 0 3.585 0.0779999 3.027 0.235C1.917 0.548 1.098 1.283 0.570999 2.441C0.189999 3.27 0 4.211 0 5.264C0 6.511 0.258 7.609 0.774 8.558C1.202 9.345 1.742 9.896 2.394 10.208C3.046 10.521 3.98 10.678 5.194 10.678H8.605V9.317H5.288C4.563 9.317 4.016 9.26 3.646 9.149C3.275 9.036 2.965 8.829 2.715 8.527C2.433 8.193 2.212 7.733 2.053 7.146C1.895 6.559 1.815 5.916 1.815 5.217C1.815 3.898 2.123 2.892 2.738 2.198C3.025 1.875 3.359 1.654 3.739 1.537C4.12 1.42 4.684 1.361 5.429 1.361H8.605Z" transform="translate(238.828 151.179) scale(1.33333 -1.33333)" fill="#070742"/>
<path d="M2.949 8.762L4.443 10.788H6.047L4.138 8.762H2.949ZM6.328 4.616V3.387H1.651C1.64 2.683 1.82 2.138 2.19 1.753C2.378 1.554 2.61 1.418 2.887 1.342C3.163 1.266 3.562 1.228 4.083 1.228H6.328V0H3.661C2.993 0 2.474 0.0509999 2.104 0.153C1.734 0.255 1.403 0.438 1.111 0.704C0.37 1.372 0 2.387 0 3.747C0 5.406 0.563 6.576 1.69 7.26C2.279 7.62 3.077 7.8 4.083 7.8H6.328V6.572H4.31C3.768 6.572 3.348 6.53 3.051 6.446C2.754 6.363 2.498 6.217 2.284 6.008C1.961 5.69 1.75 5.226 1.651 4.616H6.328Z" transform="translate(251.783 151.18) scale(1.33333 -1.33333)" fill="#070742"/>
<path d="M2.06531 14.2373H0V0H2.06531V14.2373Z" transform="translate(262.661 136.943)" fill="#070742"/>
<path d="M5.187 1.228V7.799H6.736V0H3.333C2.801 0 2.406 0.017 2.148 0.051C1.89 0.085 1.641 0.151 1.401 0.25C0.9 0.454 0.541 0.782 0.325 1.236C0.108 1.69 0 2.342 0 3.192V7.799H1.549V3.247C1.544 2.568 1.62 2.099 1.776 1.838C2.021 1.432 2.584 1.228 3.466 1.228H5.187Z" transform="translate(267.542 151.18) scale(1.33333 -1.33333)" fill="#070742"/>
<path d="M2.06534 14.2373H0V0H2.06534V14.2373Z" transform="translate(279.475 136.943)" fill="#070742"/>
<path d="M5.726 3.528H3.137C2.688 3.528 2.354 3.481 2.136 3.387C1.781 3.231 1.603 2.892 1.603 2.37C1.603 1.953 1.719 1.658 1.952 1.486C2.184 1.314 2.579 1.228 3.137 1.228H5.726V3.528ZM5.726 4.756C5.726 5.549 5.625 6.049 5.425 6.258C5.224 6.466 4.738 6.571 3.966 6.571H0.297V7.799H4.302C4.996 7.799 5.528 7.746 5.898 7.639C6.268 7.532 6.563 7.345 6.782 7.079C6.97 6.855 7.099 6.589 7.17 6.281C7.24 5.974 7.275 5.523 7.275 4.928V0H3.332C2.592 0 2.094 0.0260001 1.838 0.0780001C1.244 0.193 0.789 0.445 0.474 0.837C0.157 1.228 0 1.731 0 2.346C0 2.8 0.0859999 3.208 0.258 3.571C0.43 3.933 0.67 4.211 0.977 4.404C1.353 4.639 2.01 4.756 2.949 4.756H5.726Z" transform="translate(283.877 151.179) scale(1.33333 -1.33333)" fill="#070742"/>
<path d="M5.515 9.403L3.465 4.154H7.463L5.515 9.403ZM0 0L4.42 10.678H6.665L10.912 0H9.098L8.01 2.793H2.949L1.815 0H0Z" transform="translate(300.336 151.18) scale(1.33333 -1.33333)" fill="#070742"/>
<path d="M6.43 7.799V6.571H3.951C3.455 6.571 3.061 6.513 2.769 6.399C2.477 6.284 2.24 6.096 2.057 5.836C1.755 5.392 1.603 4.743 1.603 3.888C1.603 2.865 1.82 2.138 2.253 1.705C2.571 1.387 3.137 1.228 3.951 1.228H6.43V0H3.951C3.137 0 2.503 0.07 2.049 0.211C1.304 0.441 0.745 0.986 0.375 1.846C0.125 2.435 0 3.071 0 3.755C0 5.017 0.342 6.021 1.025 6.766C1.374 7.142 1.769 7.408 2.21 7.564C2.65 7.721 3.231 7.799 3.951 7.799H6.43Z" transform="translate(315.324 151.179) scale(1.33333 -1.33333)" fill="#070742"/>
<path d="M5.727 3.528H3.138C2.689 3.528 2.355 3.481 2.136 3.387C1.782 3.231 1.604 2.892 1.604 2.37C1.604 1.953 1.72 1.658 1.952 1.486C2.184 1.314 2.58 1.228 3.138 1.228H5.727V3.528ZM5.727 4.756C5.727 5.549 5.626 6.049 5.425 6.258C5.225 6.466 4.739 6.571 3.967 6.571H0.298V7.799H4.303C4.997 7.799 5.529 7.746 5.899 7.639C6.269 7.532 6.564 7.345 6.783 7.079C6.971 6.855 7.1 6.589 7.17 6.281C7.24 5.974 7.276 5.523 7.276 4.928V0H3.333C2.593 0 2.095 0.0260001 1.839 0.0780001C1.245 0.193 0.789 0.445 0.474 0.837C0.158 1.228 0 1.731 0 2.346C0 2.8 0.0870003 3.208 0.259 3.571C0.431 3.933 0.671 4.211 0.978 4.404C1.354 4.639 2.011 4.756 2.95 4.756H5.727Z" transform="translate(325.472 151.179) scale(1.33333 -1.33333)" fill="#070742"/>
<path d="M5.71 1.228V6.571H4.044C3.522 6.571 3.11 6.511 2.808 6.391C2.505 6.271 2.255 6.068 2.057 5.781C1.754 5.343 1.603 4.722 1.603 3.919C1.603 2.934 1.768 2.239 2.096 1.834C2.425 1.43 2.988 1.228 3.786 1.228H5.71ZM5.71 7.799V10.678H7.259V0H3.793C3.11 0 2.566 0.0520001 2.163 0.157C1.758 0.261 1.413 0.438 1.126 0.688C0.776 0.991 0.502 1.415 0.301 1.959C0.1 2.505 0 3.101 0 3.747C0 4.561 0.151 5.307 0.453 5.984C0.735 6.621 1.15 7.082 1.701 7.369C2.251 7.656 2.99 7.799 3.919 7.799H5.71Z" transform="translate(337.26 151.18) scale(1.33333 -1.33333)" fill="#070742"/>
<path d="M3.872 10.052L2.785 8.761H1.416L3.152 10.787H4.592L6.329 8.761H4.959L3.872 10.052ZM6.329 4.615V3.387H1.65C1.64 2.683 1.82 2.138 2.19 1.752C2.378 1.554 2.61 1.417 2.887 1.342C3.163 1.266 3.562 1.228 4.083 1.228H6.329V0H3.661C2.994 0 2.475 0.0509999 2.104 0.153C1.734 0.254 1.403 0.438 1.111 0.704C0.37 1.371 0 2.386 0 3.747C0 5.406 0.563 6.576 1.69 7.26C2.279 7.619 3.077 7.799 4.083 7.799H6.329V6.571H4.31C3.768 6.571 3.348 6.529 3.051 6.446C2.753 6.363 2.498 6.216 2.284 6.008C1.961 5.69 1.749 5.225 1.65 4.615H6.329Z" transform="translate(349.171 151.179) scale(1.33333 -1.33333)" fill="#070742"/>
<path d="M0 7.799H6.892C7.841 7.799 8.481 7.766 8.813 7.701C9.143 7.636 9.453 7.484 9.739 7.244C10.026 6.999 10.225 6.7 10.337 6.348C10.45 5.996 10.506 5.486 10.506 4.819V0H8.957V4.819C8.957 5.47 8.825 5.925 8.562 6.184C8.298 6.442 7.838 6.571 7.181 6.571H5.977V0H4.428V6.571H1.549V0H0V7.799Z" transform="translate(360.05 151.179) scale(1.33333 -1.33333)" fill="#070742"/>
<path d="M0 3.83867H2.06534V14.2373H0V3.83867ZM0 0H2.06534V2.16H0V0Z" transform="translate(376.863 136.941)" fill="#070742"/>
<path d="M6.43 7.799V6.571H3.951C3.455 6.571 3.061 6.513 2.769 6.399C2.477 6.284 2.24 6.096 2.057 5.836C1.755 5.392 1.604 4.743 1.604 3.888C1.604 2.865 1.82 2.138 2.253 1.705C2.571 1.387 3.137 1.228 3.951 1.228H6.43V0H3.951C3.137 0 2.503 0.07 2.05 0.211C1.304 0.441 0.746 0.986 0.375 1.846C0.125 2.435 0 3.071 0 3.755C0 5.017 0.342 6.021 1.025 6.766C1.374 7.142 1.769 7.408 2.21 7.564C2.65 7.721 3.231 7.799 3.951 7.799H6.43Z" transform="translate(381.161 151.179) scale(1.33333 -1.33333)" fill="#070742"/>
<path d="M5.726 3.528H3.137C2.688 3.528 2.354 3.481 2.135 3.387C1.781 3.231 1.603 2.892 1.603 2.37C1.603 1.953 1.719 1.658 1.951 1.486C2.184 1.314 2.579 1.228 3.137 1.228H5.726V3.528ZM5.726 4.756C5.726 5.549 5.625 6.049 5.425 6.258C5.224 6.466 4.738 6.571 3.966 6.571H0.297V7.799H4.302C4.996 7.799 5.528 7.746 5.898 7.639C6.268 7.532 6.563 7.345 6.782 7.079C6.97 6.855 7.099 6.589 7.169 6.281C7.24 5.974 7.275 5.523 7.275 4.928V0H3.332C2.592 0 2.094 0.0260001 1.838 0.0780001C1.244 0.193 0.789 0.445 0.473 0.837C0.157 1.228 0 1.731 0 2.346C0 2.8 0.0859999 3.208 0.258 3.571C0.43 3.933 0.67 4.211 0.977 4.404C1.353 4.639 2.01 4.756 2.949 4.756H5.726Z" transform="translate(391.309 151.179) scale(1.33333 -1.33333)" fill="#070742"/>
<path d="M5.71 1.228V6.571H4.044C3.522 6.571 3.11 6.511 2.808 6.391C2.505 6.271 2.255 6.068 2.057 5.781C1.754 5.343 1.603 4.722 1.603 3.919C1.603 2.934 1.768 2.239 2.096 1.834C2.425 1.43 2.988 1.228 3.786 1.228H5.71ZM5.71 7.799V10.678H7.259V0H3.793C3.11 0 2.566 0.0520001 2.163 0.157C1.758 0.261 1.413 0.438 1.126 0.688C0.776 0.991 0.502 1.415 0.301 1.959C0.1 2.505 0 3.101 0 3.747C0 4.561 0.151 5.307 0.453 5.984C0.735 6.621 1.15 7.082 1.701 7.369C2.251 7.656 2.99 7.799 3.919 7.799H5.71Z" transform="translate(408.436 151.18) scale(1.33333 -1.33333)" fill="#070742"/>
<path d="M6.329 4.616V3.387H1.651C1.641 2.683 1.821 2.138 2.191 1.753C2.378 1.554 2.611 1.418 2.887 1.342C3.163 1.266 3.562 1.228 4.084 1.228H6.329V0H3.662C2.994 0 2.475 0.0510004 2.105 0.153C1.734 0.255 1.403 0.438 1.111 0.704C0.371 1.372 0 2.387 0 3.747C0 5.406 0.564 6.576 1.69 7.26C2.279 7.62 3.078 7.8 4.084 7.8H6.329V6.572H4.311C3.768 6.572 3.349 6.53 3.051 6.446C2.754 6.363 2.498 6.217 2.285 6.008C1.961 5.69 1.75 5.226 1.651 4.616H6.329Z" transform="translate(420.347 151.18) scale(1.33333 -1.33333)" fill="#070742"/>
<path d="M1.706 9.317V1.361H4.428C5.638 1.361 6.485 1.713 6.971 2.418C7.414 3.059 7.635 3.99 7.635 5.21C7.635 6.592 7.38 7.64 6.869 8.355C6.623 8.699 6.304 8.945 5.911 9.094C5.517 9.243 4.983 9.317 4.31 9.317H1.706ZM0 10.678H4.1C5.231 10.678 6.06 10.597 6.587 10.436C7.568 10.128 8.331 9.437 8.879 8.362C9.26 7.607 9.45 6.631 9.45 5.437C9.45 3.054 8.804 1.453 7.51 0.634001C7.114 0.383001 6.697 0.215001 6.259 0.129001C5.821 0.0430007 5.153 0 4.256 0H0V10.678Z" transform="translate(239.641 176.813) scale(1.33333 -1.33333)" fill="#070742"/>
<path d="M6.329 4.615V3.387H1.651C1.641 2.683 1.821 2.138 2.191 1.752C2.379 1.554 2.611 1.417 2.887 1.342C3.163 1.266 3.562 1.228 4.084 1.228H6.329V0H3.662C2.994 0 2.475 0.0509999 2.105 0.152C1.735 0.254 1.403 0.438 1.111 0.704C0.371 1.371 0 2.386 0 3.747C0 5.406 0.564 6.576 1.69 7.259C2.28 7.619 3.078 7.799 4.084 7.799H6.329V6.571H4.311C3.768 6.571 3.349 6.529 3.051 6.446C2.754 6.362 2.498 6.216 2.285 6.008C1.961 5.69 1.75 5.225 1.651 4.615H6.329Z" transform="translate(253.712 176.813) scale(1.33333 -1.33333)" fill="#070742"/>
<path d="M6.813 7.799V6.571H3.301C2.764 6.571 2.415 6.559 2.256 6.536C2.097 6.512 1.971 6.451 1.877 6.352C1.694 6.169 1.603 5.875 1.603 5.468C1.603 5.077 1.701 4.821 1.896 4.701C2.092 4.581 2.511 4.521 3.152 4.521H4.208C5.068 4.511 5.598 4.495 5.796 4.474C5.994 4.453 6.182 4.388 6.359 4.279C6.881 3.955 7.142 3.306 7.142 2.331C7.142 1.262 6.808 0.56 6.14 0.227C5.958 0.132 5.744 0.0709997 5.499 0.0429997C5.254 0.0139997 4.823 0 4.208 0H0.085V1.228H3.833C4.552 1.228 4.993 1.262 5.155 1.33C5.41 1.439 5.538 1.731 5.538 2.206C5.538 2.706 5.379 2.996 5.061 3.074C4.93 3.111 4.555 3.129 3.934 3.129H3.301C2.466 3.129 1.9 3.153 1.603 3.203C1.306 3.253 1.048 3.369 0.829 3.551C0.276 3.994 0 4.641 0 5.491C0 5.945 0.0910002 6.349 0.273 6.704C0.456 7.058 0.706 7.319 1.024 7.486C1.42 7.695 2.044 7.799 2.894 7.799H6.813Z" transform="translate(263.977 176.813) scale(1.33333 -1.33333)" fill="#070742"/>
<path d="M6.329 4.615V3.387H1.651C1.641 2.683 1.821 2.138 2.191 1.752C2.379 1.554 2.611 1.417 2.887 1.342C3.163 1.266 3.562 1.228 4.084 1.228H6.329V0H3.662C2.994 0 2.475 0.0509999 2.105 0.152C1.735 0.254 1.403 0.438 1.111 0.704C0.371 1.371 0 2.386 0 3.747C0 5.406 0.564 6.576 1.69 7.259C2.28 7.619 3.078 7.799 4.084 7.799H6.329V6.571H4.311C3.768 6.571 3.349 6.529 3.051 6.446C2.754 6.362 2.498 6.216 2.285 6.008C1.961 5.69 1.75 5.225 1.651 4.615H6.329Z" transform="translate(275.104 176.813) scale(1.33333 -1.33333)" fill="#070742"/>
<path d="M0 7.799H3.606C4.29 7.799 4.835 7.725 5.246 7.576C5.654 7.427 5.984 7.181 6.235 6.837C6.574 6.399 6.749 5.669 6.759 4.646V0H5.21V4.482C5.21 5.264 5.075 5.808 4.807 6.113C4.538 6.418 4.058 6.571 3.364 6.571H1.549V0H0V7.799Z" transform="translate(285.984 176.813) scale(1.33333 -1.33333)" fill="#070742"/>
<path d="M4.076 2.01L6.626 7.799H8.253L4.647 0H3.403L0 7.799H1.69L4.076 2.01Z" transform="translate(295.944 176.813) scale(1.33333 -1.33333)" fill="#070742"/>
<path d="M3.974 6.688C3.212 6.688 2.627 6.451 2.217 5.976C1.808 5.501 1.603 4.826 1.603 3.95C1.603 3.115 1.77 2.49 2.104 2.072C2.527 1.546 3.14 1.282 3.942 1.282C5.554 1.282 6.36 2.159 6.36 3.911C6.36 4.803 6.155 5.486 5.746 5.96C5.336 6.435 4.745 6.677 3.974 6.688ZM4.068 7.971C5.319 7.971 6.292 7.611 6.986 6.891C7.638 6.218 7.963 5.238 7.963 3.95C7.963 2.75 7.632 1.801 6.97 1.103C6.266 0.367 5.27 0 3.982 0C2.626 0 1.599 0.375 0.899 1.126C0.3 1.762 0 2.669 0 3.848C0 5.089 0.336 6.085 1.009 6.836C1.677 7.582 2.696 7.96 4.068 7.971" transform="translate(307.324 176.927) scale(1.33333 -1.33333)" fill="#070742"/>
<path d="M2.06531 14.2374H0V0H2.06531V14.2374Z" transform="translate(320.175 162.576)" fill="#070742"/>
<path d="M4.076 2.01L6.626 7.799H8.253L4.647 0H3.403L0 7.799H1.69L4.076 2.01Z" transform="translate(323.793 176.813) scale(1.33333 -1.33333)" fill="#070742"/>
<path d="M0 3.83734H2.06534V14.236H0V3.83734ZM0 0H2.06534V2.16H0V0Z" transform="translate(336.435 162.576)" fill="#070742"/>
<path d="M0 7.799H6.892C7.841 7.799 8.48 7.766 8.813 7.701C9.143 7.636 9.452 7.484 9.739 7.243C10.026 6.998 10.225 6.7 10.337 6.348C10.449 5.996 10.506 5.486 10.506 4.819V0H8.957V4.819C8.957 5.47 8.825 5.925 8.562 6.184C8.298 6.442 7.838 6.571 7.181 6.571H5.977V0H4.427V6.571H1.549V0H0V7.799Z" transform="translate(341.463 176.813) scale(1.33333 -1.33333)" fill="#070742"/>
<path d="M6.329 4.615V3.387H1.651C1.641 2.683 1.82 2.138 2.191 1.752C2.378 1.554 2.61 1.417 2.887 1.342C3.163 1.266 3.562 1.228 4.084 1.228H6.329V0H3.662C2.994 0 2.475 0.0509999 2.104 0.152C1.734 0.254 1.403 0.438 1.111 0.704C0.371 1.371 0 2.386 0 3.747C0 5.406 0.563 6.576 1.69 7.259C2.279 7.619 3.077 7.799 4.084 7.799H6.329V6.571H4.31C3.768 6.571 3.349 6.529 3.051 6.446C2.754 6.362 2.498 6.216 2.285 6.008C1.961 5.69 1.75 5.225 1.651 4.615H6.329Z" transform="translate(357.546 176.813) scale(1.33333 -1.33333)" fill="#070742"/>
<path d="M0 7.799H3.606C4.29 7.799 4.835 7.725 5.245 7.576C5.654 7.427 5.984 7.181 6.234 6.837C6.574 6.399 6.748 5.669 6.759 4.646V0H5.21V4.482C5.21 5.264 5.075 5.808 4.807 6.113C4.538 6.418 4.057 6.571 3.364 6.571H1.549V0H0V7.799Z" transform="translate(368.425 176.813) scale(1.33333 -1.33333)" fill="#070742"/>
<path d="M1.486 7.799V10.678H3.035V7.799H5.311V6.571H3.035V2.472C3.035 2.138 3.05 1.901 3.082 1.76C3.113 1.619 3.176 1.512 3.27 1.439C3.431 1.299 3.807 1.228 4.396 1.228H5.311V0H3.809C3.298 0 2.919 0.0309999 2.672 0.0929999C2.423 0.156 2.206 0.278 2.018 0.461C1.82 0.649 1.682 0.881 1.604 1.157C1.525 1.434 1.486 1.828 1.486 2.339V6.571H0V7.799H1.486Z" transform="translate(379.137 176.813) scale(1.33333 -1.33333)" fill="#070742"/>
<path d="M3.974 6.688C3.213 6.688 2.627 6.451 2.218 5.976C1.808 5.501 1.604 4.826 1.604 3.95C1.604 3.115 1.77 2.49 2.104 2.072C2.527 1.546 3.14 1.282 3.943 1.282C5.554 1.282 6.36 2.159 6.36 3.911C6.36 4.803 6.155 5.486 5.746 5.96C5.336 6.435 4.746 6.677 3.974 6.688ZM4.068 7.971C5.32 7.971 6.292 7.611 6.986 6.891C7.638 6.218 7.964 5.238 7.964 3.95C7.964 2.75 7.632 1.801 6.97 1.103C6.266 0.367 5.27 0 3.982 0C2.626 0 1.599 0.375 0.9 1.126C0.3 1.762 0 2.669 0 3.848C0 5.089 0.336 6.085 1.009 6.836C1.677 7.582 2.696 7.96 4.068 7.971" transform="translate(387.189 176.927) scale(1.33333 -1.33333)" fill="#070742"/>
<path d="M5.711 1.228V6.571H4.044C3.523 6.571 3.111 6.511 2.809 6.391C2.506 6.271 2.256 6.068 2.058 5.781C1.755 5.343 1.604 4.722 1.604 3.919C1.604 2.934 1.768 2.239 2.097 1.834C2.425 1.43 2.988 1.228 3.787 1.228H5.711ZM5.711 7.799V10.678H7.26V0H3.794C3.111 0 2.567 0.052 2.164 0.156C1.759 0.261 1.414 0.438 1.127 0.688C0.777 0.991 0.502 1.415 0.302 1.959C0.101 2.504 0 3.101 0 3.747C0 4.561 0.151 5.307 0.454 5.984C0.735 6.621 1.151 7.082 1.701 7.369C2.252 7.656 2.991 7.799 3.919 7.799H5.711Z" transform="translate(404.649 176.813) scale(1.33333 -1.33333)" fill="#070742"/>
<path d="M6.329 4.615V3.387H1.651C1.641 2.683 1.821 2.138 2.191 1.752C2.379 1.554 2.611 1.417 2.887 1.342C3.163 1.266 3.562 1.228 4.084 1.228H6.329V0H3.662C2.994 0 2.475 0.0509999 2.105 0.152C1.735 0.254 1.403 0.438 1.111 0.704C0.371 1.371 0 2.386 0 3.747C0 5.406 0.564 6.576 1.69 7.259C2.28 7.619 3.078 7.799 4.084 7.799H6.329V6.571H4.311C3.768 6.571 3.349 6.529 3.052 6.446C2.754 6.362 2.498 6.216 2.285 6.008C1.961 5.69 1.75 5.225 1.651 4.615H6.329Z" transform="translate(416.56 176.813) scale(1.33333 -1.33333)" fill="#070742"/>
<path d="M0.383 0V1.361H4.998C5.708 1.361 6.216 1.45 6.524 1.627C6.993 1.898 7.228 2.36 7.228 3.012C7.228 3.841 6.923 4.354 6.312 4.553C6.041 4.642 5.496 4.686 4.677 4.686H3.786C2.555 4.686 1.674 4.855 1.142 5.194C0.38 5.674 0 6.433 0 7.471C0 8.154 0.174 8.759 0.524 9.286C0.862 9.802 1.302 10.163 1.841 10.369C2.382 10.575 3.147 10.678 4.138 10.678H8.534V9.317H4.138C3.674 9.317 3.318 9.295 3.07 9.25C2.822 9.206 2.607 9.126 2.425 9.012C2.018 8.751 1.814 8.318 1.814 7.713C1.814 7.181 1.993 6.801 2.35 6.571C2.707 6.342 3.303 6.227 4.138 6.227H4.779C5.692 6.227 6.372 6.185 6.821 6.102C7.269 6.018 7.64 5.867 7.932 5.648C8.281 5.382 8.553 5.022 8.75 4.568C8.945 4.115 9.043 3.614 9.043 3.066C9.043 1.805 8.55 0.918 7.564 0.407C7.257 0.25 6.908 0.144 6.519 0.086C6.131 0.029 5.551 0 4.779 0H0.383Z" transform="translate(432.071 176.813) scale(1.33333 -1.33333)" fill="#070742"/>
<path d="M3.974 6.688C3.213 6.688 2.627 6.451 2.218 5.976C1.808 5.501 1.604 4.826 1.604 3.95C1.604 3.115 1.771 2.49 2.104 2.072C2.527 1.546 3.14 1.282 3.943 1.282C5.555 1.282 6.36 2.159 6.36 3.911C6.36 4.803 6.155 5.486 5.746 5.96C5.336 6.435 4.746 6.677 3.974 6.688ZM4.068 7.971C5.32 7.971 6.292 7.611 6.986 6.891C7.638 6.218 7.964 5.238 7.964 3.95C7.964 2.75 7.633 1.801 6.971 1.103C6.266 0.367 5.27 0 3.982 0C2.626 0 1.599 0.375 0.9 1.126C0.3 1.762 0 2.669 0 3.848C0 5.089 0.337 6.085 1.01 6.836C1.677 7.582 2.697 7.96 4.068 7.971" transform="translate(445.651 176.927) scale(1.33333 -1.33333)" fill="#070742"/>
<path d="M1.376 6.571H0V7.799H1.376V8.143C1.376 9.04 1.574 9.687 1.971 10.083C2.367 10.48 3.014 10.678 3.911 10.678H5.514V9.449H4.114C3.64 9.449 3.322 9.369 3.163 9.207C3.004 9.046 2.925 8.719 2.925 8.229V7.799H5.381V6.571H2.925V0H1.376V6.571Z" transform="translate(457.428 176.813) scale(1.33333 -1.33333)" fill="#070742"/>
<path d="M1.486 7.799V10.678H3.035V7.799H5.311V6.571H3.035V2.472C3.035 2.138 3.05 1.901 3.082 1.76C3.113 1.619 3.176 1.512 3.27 1.439C3.431 1.299 3.807 1.228 4.396 1.228H5.311V0H3.809C3.298 0 2.919 0.0309999 2.672 0.0929999C2.423 0.156 2.206 0.278 2.018 0.461C1.82 0.649 1.682 0.881 1.603 1.157C1.525 1.434 1.486 1.828 1.486 2.339V6.571H0V7.799H1.486Z" transform="translate(465.667 176.813) scale(1.33333 -1.33333)" fill="#070742"/>
<path d="M4.529 1.228V7.799H6.078V1.228H8.957V7.799H10.506V0H3.246C2.417 0 1.836 0.0620001 1.502 0.188C0.98 0.386 0.599 0.695 0.36 1.115C0.12 1.535 0 2.102 0 2.816L0.0079999 3.504V7.799H1.556V3.325C1.556 2.793 1.569 2.432 1.591 2.241C1.615 2.051 1.671 1.888 1.76 1.752C1.875 1.56 2.045 1.424 2.273 1.346C2.499 1.267 2.824 1.228 3.246 1.228H4.529Z" transform="translate(474.668 176.813) scale(1.33333 -1.33333)" fill="#070742"/>
<path d="M5.726 3.528H3.137C2.688 3.528 2.354 3.481 2.135 3.387C1.781 3.231 1.603 2.892 1.603 2.37C1.603 1.953 1.719 1.658 1.951 1.486C2.184 1.315 2.579 1.228 3.137 1.228H5.726V3.528ZM5.726 4.757C5.726 5.549 5.625 6.05 5.425 6.258C5.224 6.467 4.738 6.571 3.966 6.571H0.297V7.799H4.302C4.996 7.799 5.528 7.746 5.898 7.639C6.268 7.532 6.563 7.346 6.782 7.08C6.97 6.856 7.099 6.59 7.169 6.282C7.24 5.974 7.275 5.523 7.275 4.928V0H3.332C2.592 0 2.094 0.0260001 1.838 0.0780001C1.244 0.193 0.789 0.446 0.474 0.837C0.157 1.228 0 1.732 0 2.347C0 2.801 0.0859999 3.209 0.258 3.571C0.43 3.934 0.67 4.212 0.977 4.404C1.353 4.639 2.01 4.757 2.949 4.757H5.726Z" transform="translate(490.877 176.813) scale(1.33333 -1.33333)" fill="#070742"/>
<path d="M0 7.799H2.002C2.644 7.799 3.142 7.755 3.497 7.666C3.852 7.577 4.151 7.424 4.396 7.204C4.631 6.99 4.795 6.725 4.889 6.406C4.983 6.089 5.03 5.632 5.03 5.038V4.279H3.567V5.038C3.567 5.606 3.469 5.992 3.274 6.195C3.078 6.399 2.709 6.5 2.167 6.5H1.549V0H0V7.799Z" transform="translate(503.393 176.813) scale(1.33333 -1.33333)" fill="#070742"/>
<path d="M6.329 4.615V3.387H1.651C1.641 2.683 1.82 2.138 2.191 1.752C2.378 1.554 2.611 1.417 2.887 1.342C3.163 1.266 3.562 1.228 4.084 1.228H6.329V0H3.662C2.994 0 2.475 0.0509999 2.105 0.152C1.734 0.254 1.403 0.438 1.111 0.704C0.371 1.371 0 2.386 0 3.747C0 5.406 0.563 6.576 1.69 7.259C2.279 7.619 3.078 7.799 4.084 7.799H6.329V6.571H4.31C3.768 6.571 3.349 6.529 3.051 6.446C2.754 6.362 2.498 6.216 2.285 6.008C1.961 5.69 1.75 5.225 1.651 4.615H6.329Z" transform="translate(511.403 176.813) scale(1.33333 -1.33333)" fill="#070742"/>
<path d="M346.815 3.56H0V0H346.815V3.56Z" transform="translate(172.244 118.207)" fill="#070742"/>
<path d="M39.937 0L38.351 0.221L45.365 50.444L0 55.48L0.177002 57.073L47.18 51.854L39.937 0Z" transform="translate(120.052 120.133) scale(1.33333 -1.33333)" fill="#070742"/>
<path d="M8.727 24.267L58.654 2.072L89.755 60.946L41.911 73.14L50.727 115.996L1.707 86.133L8.727 24.267ZM59.371 0L7.239 23.176L0 86.969L53.039 119.28L43.788 74.315L92.122 61.996L59.371 0Z" transform="translate(50.993 201.948) scale(1.33333 -1.33333)" fill="#070742"/>
<path d="M0.921 0L0 1.311L55.218 40.093L56.139 38.782L0.921 0Z" transform="translate(107.511 104.518) scale(1.33333 -1.33333)" fill="#070742"/>
<path d="M66.79 0L24.977 12.767L0.270004 8.534L0 10.113L25.081 14.41L67.258 1.532L66.79 0Z" transform="translate(18.7599 104.665) scale(1.33333 -1.33333)" fill="#070742"/>
<path d="M33.821 27.916L47.217 1.723L82.944 5.985L67.369 76.032L33.821 27.916ZM46.298 0L32.249 27.472L8.81 47.313L0 86.749L39.563 135.086L77.042 122.656L76.537 121.136L40.105 133.219L1.733 86.338L10.256 48.189L32.735 29.16L68.141 79.94L84.893 4.604L46.298 0Z" transform="translate(17.7849 207.626) scale(1.33333 -1.33333)" fill="#070742"/>
<path d="M19.651 9.826C19.651 4.399 15.252 0 9.826 0C4.399 0 0 4.399 0 9.826C0 15.252 4.399 19.651 9.826 19.651C15.252 19.651 19.651 15.252 19.651 9.826Z" transform="translate(39.0305 99.6481) scale(1.33333 -1.33333)" fill="#070742"/>
<path d="M14.258 7.129C14.258 3.191 11.066 0 7.129 0C3.192 0 0 3.191 0 7.129C0 11.066 3.192 14.258 7.129 14.258C11.066 14.258 14.258 11.066 14.258 7.129Z" transform="translate(172.244 61.4396) scale(1.33333 -1.33333)" fill="#070742"/>
<path d="M14.258 7.129C14.258 3.192 11.066 0 7.129 0C3.192 0 0 3.192 0 7.129C0 11.066 3.192 14.258 7.129 14.258C11.066 14.258 14.258 11.066 14.258 7.129Z" transform="translate(120.171 210.072) scale(1.33333 -1.33333)" fill="#070742"/>
<path d="M32.231 16.116C32.231 7.215 25.016 0 16.115 0C7.215 0 0 7.215 0 16.116C0 25.016 7.215 32.232 16.115 32.232C25.016 32.232 32.231 25.016 32.231 16.116Z" transform="translate(98.6836 66.5856) scale(1.33333 -1.33333)" fill="#070742"/>
<path d="M11.189 5.595C11.189 2.505 8.684 0 5.594 0C2.504 0 0 2.505 0 5.595C0 8.685 2.504 11.19 5.594 11.19C8.684 11.19 11.189 8.685 11.189 5.595Z" transform="translate(23.0365 151.417) scale(1.33333 -1.33333)" fill="#070742"/>
<path d="M10.855 5.428C10.855 2.43 8.425 0 5.427 0C2.43 0 0 2.43 0 5.428C0 8.426 2.43 10.856 5.427 10.856C8.425 10.856 10.855 8.426 10.855 5.428Z" transform="translate(100.889 110.881) scale(1.33333 -1.33333)" fill="#070742"/>
<path d="M54.267 27.133C54.267 12.148 42.119 0 27.134 0C12.148 0 0 12.148 0 27.133C0 42.118 12.148 54.267 27.134 54.267C42.119 54.267 54.267 42.118 54.267 27.133Z" transform="translate(136.066 156.164) scale(1.33333 -1.33333)" fill="#070742"/>
</svg>
