<svg width="529" height="227" viewBox="0 0 529 227" fill="none" xmlns="http://www.w3.org/2000/svg">
<path d="M169.839 84.92C169.839 38.02 131.819 0 84.92 0C38.02 0 0 38.02 0 84.92C0 131.82 38.02 169.84 84.92 169.84C131.819 169.84 169.839 131.82 169.839 84.92Z" transform="translate(0 226.453) scale(1.33333 -1.33333)" fill="#070742"/>
<path d="M17.333 8.667C17.333 3.88 13.453 0 8.666 0C3.88 0 0 3.88 0 8.667C0 13.454 3.88 17.334 8.666 17.334C13.453 17.334 17.333 13.454 17.333 8.667Z" transform="translate(505.368 129.405) scale(1.33333 -1.33333)" fill="#070742"/>
<path d="M32.446 7.097V0H18.545C15.896 0 13.872 0.137 12.47 0.409C7.583 1.363 4.108 4.098 2.044 8.616C0.680999 11.634 0 15.372 0 19.83C0 25.184 1.041 29.546 3.124 32.914C4.624 35.328 6.634 37.091 9.155 38.201C11.676 39.31 14.943 39.865 18.953 39.865H32.446V32.768H19.917C16.121 32.768 13.336 31.756 11.565 29.731C10.104 28.056 9.374 25.019 9.374 20.619C9.374 14.739 10.513 10.874 12.791 9.025C14.387 7.74 16.87 7.097 20.238 7.097H32.446Z" transform="translate(234.271 97.5109) scale(1.33333 -1.33333)" fill="#070742"/>
<path d="M21.407 30.286L15.712 16.326H27.073L21.407 30.286ZM0 0L16.501 39.865H26.284L42.785 0H32.826L28.97 9.229H13.813L9.959 0H0Z" transform="translate(281.349 97.5109) scale(1.33333 -1.33333)" fill="#070742"/>
<path d="M8.47 32.768V7.097H16.909C20.609 7.097 23.179 7.924 24.62 9.579C25.496 10.591 26.201 12.037 26.738 13.916C27.273 15.795 27.54 17.795 27.54 19.917C27.54 22.254 27.224 24.405 26.591 26.372C25.958 28.338 25.116 29.799 24.065 30.753C22.546 32.096 20.161 32.768 16.909 32.768H8.47ZM0 39.865H16.909C21.135 39.865 24.406 39.446 26.723 38.609C30.987 37.071 33.828 34.228 35.25 30.081C36.34 26.907 36.886 23.5 36.886 19.859C36.886 16.257 36.369 12.86 35.338 9.667C34.306 6.396 32.583 3.991 30.169 2.453C28.651 1.479 26.991 0.827002 25.19 0.497002C23.388 0.165002 20.628 0 16.909 0H0V39.865Z" transform="translate(344.119 97.5104) scale(1.33333 -1.33333)" fill="#070742"/>
<path d="M32.066 39.865V32.768H20.998C18.096 32.768 15.989 32.569 14.674 32.169C13.361 31.77 12.265 30.996 11.389 29.847C10.805 29.069 10.406 28.28 10.192 27.482C9.977 26.683 9.793 25.321 9.637 23.393H32.066V16.297H9.637C9.929 12.85 10.931 10.456 12.645 9.112C14.358 7.769 17.269 7.097 21.378 7.097H32.066V0H20.998C17.999 0 15.361 0.185 13.083 0.555C9.501 1.139 6.648 2.706 4.526 5.257C1.508 8.917 0 13.882 0 20.152C0 27.102 2.131 32.505 6.395 36.36C7.855 37.665 9.413 38.575 11.068 39.091C12.722 39.607 14.942 39.865 17.726 39.865H32.066Z" transform="translate(398.402 97.5108) scale(1.33333 -1.33333)" fill="#070742"/>
<path d="M1.898 0V7.097H20.092C23.013 7.097 24.96 7.389 25.933 7.973C27.335 8.81 28.037 10.066 28.037 11.74C28.037 13.668 27.218 15.08 25.583 15.975C24.649 16.481 23.159 16.734 21.115 16.734H13.726C9.209 16.734 5.958 17.552 3.971 19.187C2.725 20.219 1.752 21.519 1.051 23.086C0.35 24.654 0 26.323 0 28.095C0 30.899 0.817 33.459 2.453 35.776C4.049 38.015 6.609 39.319 10.133 39.689C11.321 39.806 13.092 39.865 15.449 39.865H35.22V32.768H17.377C14.709 32.749 12.937 32.631 12.061 32.417C10.27 31.969 9.375 30.616 9.375 28.358C9.375 26.45 10.124 25.165 11.624 24.503C12.635 24.055 14.31 23.831 16.646 23.831H23.043C26.313 23.831 28.756 23.549 30.373 22.984C33.196 22.03 35.133 20.356 36.184 17.961C37.041 16.034 37.469 13.97 37.469 11.77C37.469 9.355 36.915 7.185 35.805 5.257C34.247 2.531 31.901 0.905 28.766 0.38C27.248 0.126 24.969 0 21.932 0H1.898Z" transform="translate(447.427 97.5104) scale(1.33333 -1.33333)" fill="#070742"/>
<path d="M8.605 1.361V0H5.288C4.339 0 3.585 0.078 3.027 0.234C1.917 0.547 1.098 1.282 0.570999 2.44C0.189999 3.27 0 4.211 0 5.264C0 6.511 0.258 7.609 0.774 8.558C1.202 9.345 1.742 9.895 2.394 10.208C3.045 10.521 3.979 10.677 5.194 10.677H8.605V9.317H5.288C4.563 9.317 4.016 9.26 3.645 9.148C3.275 9.036 2.965 8.829 2.714 8.527C2.433 8.193 2.212 7.733 2.053 7.146C1.894 6.559 1.814 5.916 1.814 5.217C1.814 3.898 2.123 2.891 2.738 2.198C3.024 1.875 3.358 1.654 3.739 1.537C4.12 1.42 4.683 1.361 5.429 1.361H8.605Z" transform="translate(236.692 149.042) scale(1.33333 -1.33333)" fill="#EAC011"/>
<path d="M2.949 8.761L4.443 10.787H6.047L4.138 8.761H2.949ZM6.328 4.615V3.387H1.65C1.64 2.683 1.82 2.138 2.19 1.752C2.378 1.554 2.61 1.417 2.886 1.341C3.162 1.266 3.561 1.228 4.083 1.228H6.328V0H3.66C2.993 0 2.474 0.0509995 2.104 0.151999C1.734 0.253999 1.403 0.438 1.111 0.704C0.37 1.371 0 2.386 0 3.747C0 5.405 0.563 6.576 1.689 7.259C2.279 7.619 3.076 7.799 4.083 7.799H6.328V6.571H4.31C3.767 6.571 3.348 6.529 3.051 6.446C2.753 6.362 2.498 6.216 2.284 6.008C1.961 5.689 1.749 5.225 1.65 4.615H6.328Z" transform="translate(249.647 149.042) scale(1.33333 -1.33333)" fill="#EAC011"/>
<path d="M2.06534 14.2373H0V0H2.06534V14.2373Z" transform="translate(260.526 134.805)" fill="#EAC011"/>
<path d="M5.187 1.228V7.799H6.736V0H3.333C2.8 0 2.406 0.017 2.148 0.051C1.889 0.084 1.64 0.151 1.401 0.25C0.9 0.454 0.541 0.782 0.325 1.236C0.108 1.689 0 2.341 0 3.191V7.799H1.549V3.247C1.543 2.568 1.62 2.099 1.776 1.838C2.021 1.432 2.584 1.228 3.465 1.228H5.187Z" transform="translate(265.406 149.042) scale(1.33333 -1.33333)" fill="#EAC011"/>
<path d="M2.06534 14.2373H0V0H2.06534V14.2373Z" transform="translate(277.339 134.805)" fill="#EAC011"/>
<path d="M5.727 3.528H3.137C2.689 3.528 2.355 3.481 2.136 3.387C1.782 3.231 1.604 2.892 1.604 2.37C1.604 1.953 1.72 1.658 1.952 1.486C2.184 1.314 2.58 1.228 3.137 1.228H5.727V3.528ZM5.727 4.757C5.727 5.549 5.626 6.049 5.425 6.258C5.224 6.467 4.739 6.571 3.966 6.571H0.297V7.799H4.303C4.997 7.799 5.529 7.746 5.899 7.639C6.269 7.532 6.564 7.346 6.783 7.08C6.97 6.856 7.099 6.59 7.17 6.282C7.24 5.974 7.276 5.523 7.276 4.928V0H3.333C2.592 0 2.094 0.0260001 1.839 0.0780001C1.245 0.193 0.79 0.446 0.474 0.837C0.158 1.228 0 1.732 0 2.347C0 2.8 0.0860004 3.209 0.258 3.571C0.431 3.934 0.67 4.211 0.978 4.404C1.354 4.639 2.011 4.757 2.95 4.757H5.727Z" transform="translate(281.74 149.043) scale(1.33333 -1.33333)" fill="#EAC011"/>
<path d="M5.515 9.403L3.465 4.154H7.463L5.515 9.403ZM0 0L4.42 10.678H6.665L10.912 0H9.098L8.01 2.793H2.95L1.815 0H0Z" transform="translate(298.2 149.043) scale(1.33333 -1.33333)" fill="#EAC011"/>
<path d="M6.43 7.799V6.57H3.951C3.455 6.57 3.061 6.513 2.769 6.399C2.477 6.284 2.24 6.096 2.057 5.835C1.755 5.392 1.604 4.743 1.604 3.887C1.604 2.865 1.82 2.138 2.253 1.705C2.571 1.387 3.137 1.228 3.951 1.228H6.43V0H3.951C3.137 0 2.503 0.07 2.049 0.211C1.304 0.44 0.745 0.986 0.375 1.846C0.125 2.435 0 3.071 0 3.755C0 5.017 0.341 6.021 1.025 6.766C1.374 7.142 1.769 7.408 2.21 7.564C2.651 7.721 3.231 7.799 3.951 7.799H6.43Z" transform="translate(313.188 149.042) scale(1.33333 -1.33333)" fill="#EAC011"/>
<path d="M5.727 3.528H3.137C2.689 3.528 2.355 3.481 2.136 3.387C1.782 3.231 1.604 2.892 1.604 2.37C1.604 1.953 1.72 1.658 1.952 1.486C2.184 1.314 2.58 1.228 3.137 1.228H5.727V3.528ZM5.727 4.757C5.727 5.549 5.625 6.049 5.425 6.258C5.224 6.467 4.739 6.571 3.966 6.571H0.297V7.799H4.303C4.997 7.799 5.529 7.746 5.899 7.639C6.269 7.532 6.564 7.346 6.783 7.08C6.97 6.856 7.099 6.59 7.17 6.282C7.24 5.974 7.276 5.523 7.276 4.928V0H3.332C2.592 0 2.094 0.0260001 1.838 0.0780001C1.245 0.193 0.789 0.446 0.474 0.837C0.158 1.228 0 1.732 0 2.347C0 2.8 0.0860004 3.209 0.258 3.571C0.43 3.934 0.67 4.211 0.978 4.404C1.354 4.639 2.011 4.757 2.95 4.757H5.727Z" transform="translate(323.336 149.043) scale(1.33333 -1.33333)" fill="#EAC011"/>
<path d="M5.71 1.228V6.571H4.044C3.522 6.571 3.11 6.511 2.808 6.391C2.506 6.271 2.255 6.068 2.057 5.781C1.755 5.343 1.604 4.722 1.604 3.919C1.604 2.934 1.768 2.239 2.096 1.834C2.425 1.43 2.988 1.228 3.786 1.228H5.71ZM5.71 7.799V10.678H7.259V0H3.794C3.11 0 2.566 0.052 2.163 0.156C1.758 0.261 1.413 0.438 1.126 0.688C0.776 0.991 0.501 1.415 0.301 1.959C0.1 2.504 0 3.101 0 3.747C0 4.561 0.151 5.306 0.453 5.984C0.735 6.621 1.15 7.082 1.701 7.369C2.251 7.656 2.99 7.799 3.919 7.799H5.71Z" transform="translate(335.123 149.042) scale(1.33333 -1.33333)" fill="#EAC011"/>
<path d="M3.872 10.052L2.784 8.761H1.416L3.152 10.787H4.592L6.328 8.761H4.959L3.872 10.052ZM6.328 4.615V3.387H1.65C1.64 2.683 1.819 2.138 2.19 1.752C2.378 1.554 2.609 1.417 2.887 1.341C3.163 1.266 3.561 1.228 4.083 1.228H6.328V0H3.661C2.993 0 2.475 0.0510004 2.103 0.152C1.733 0.254 1.402 0.438 1.11 0.704C0.37 1.371 0 2.385 0 3.747C0 5.405 0.562 6.576 1.689 7.259C2.278 7.619 3.076 7.799 4.083 7.799H6.328V6.571H4.309C3.768 6.571 3.348 6.529 3.051 6.446C2.753 6.362 2.498 6.216 2.284 6.008C1.961 5.689 1.749 5.225 1.65 4.615H6.328Z" transform="translate(347.035 149.042) scale(1.33333 -1.33333)" fill="#EAC011"/>
<path d="M0 7.799H6.892C7.841 7.799 8.48 7.766 8.813 7.701C9.143 7.636 9.452 7.484 9.739 7.243C10.025 6.998 10.225 6.7 10.337 6.348C10.449 5.996 10.506 5.486 10.506 4.819V0H8.957V4.819C8.957 5.47 8.824 5.925 8.562 6.183C8.298 6.442 7.838 6.57 7.181 6.57H5.977V0H4.428V6.57H1.549V0H0V7.799Z" transform="translate(357.914 149.042) scale(1.33333 -1.33333)" fill="#EAC011"/>
<path d="M0 3.83734H2.06665V14.236H0V3.83734ZM0 0H2.06665V2.15866H0V0Z" transform="translate(374.726 134.806)" fill="#EAC011"/>
<path d="M6.43 7.799V6.57H3.951C3.455 6.57 3.062 6.513 2.769 6.399C2.477 6.284 2.24 6.096 2.058 5.835C1.755 5.392 1.604 4.743 1.604 3.887C1.604 2.865 1.821 2.138 2.253 1.705C2.572 1.387 3.137 1.228 3.951 1.228H6.43V0H3.951C3.137 0 2.503 0.07 2.05 0.211C1.304 0.44 0.745 0.986 0.375 1.846C0.125 2.435 0 3.071 0 3.755C0 5.017 0.342 6.021 1.025 6.766C1.374 7.142 1.769 7.408 2.21 7.564C2.651 7.721 3.231 7.799 3.951 7.799H6.43Z" transform="translate(379.024 149.042) scale(1.33333 -1.33333)" fill="#EAC011"/>
<path d="M5.727 3.528H3.137C2.689 3.528 2.355 3.481 2.136 3.387C1.782 3.231 1.604 2.892 1.604 2.37C1.604 1.953 1.72 1.658 1.952 1.486C2.184 1.314 2.58 1.228 3.137 1.228H5.727V3.528ZM5.727 4.757C5.727 5.549 5.626 6.049 5.425 6.258C5.224 6.467 4.739 6.571 3.966 6.571H0.297V7.799H4.303C4.997 7.799 5.529 7.746 5.899 7.639C6.269 7.532 6.564 7.346 6.783 7.08C6.97 6.856 7.099 6.59 7.17 6.282C7.24 5.974 7.276 5.523 7.276 4.928V0H3.332C2.592 0 2.094 0.0260001 1.838 0.0780001C1.245 0.193 0.789 0.446 0.474 0.837C0.158 1.228 0 1.732 0 2.347C0 2.8 0.0860004 3.209 0.258 3.571C0.431 3.934 0.67 4.211 0.978 4.404C1.354 4.639 2.011 4.757 2.95 4.757H5.727Z" transform="translate(389.172 149.043) scale(1.33333 -1.33333)" fill="#EAC011"/>
<path d="M5.711 1.228V6.571H4.045C3.523 6.571 3.111 6.511 2.809 6.391C2.506 6.271 2.256 6.068 2.058 5.781C1.755 5.343 1.604 4.722 1.604 3.919C1.604 2.934 1.769 2.239 2.097 1.834C2.425 1.43 2.988 1.228 3.786 1.228H5.711ZM5.711 7.799V10.678H7.26V0H3.794C3.111 0 2.567 0.052 2.163 0.156C1.759 0.261 1.413 0.438 1.127 0.688C0.777 0.991 0.502 1.415 0.302 1.959C0.101 2.504 0 3.101 0 3.747C0 4.561 0.151 5.306 0.454 5.984C0.735 6.621 1.151 7.082 1.701 7.369C2.252 7.656 2.991 7.799 3.919 7.799H5.711Z" transform="translate(406.299 149.042) scale(1.33333 -1.33333)" fill="#EAC011"/>
<path d="M6.329 4.615V3.387H1.65C1.641 2.683 1.82 2.138 2.19 1.752C2.378 1.554 2.61 1.417 2.887 1.341C3.163 1.266 3.562 1.228 4.084 1.228H6.329V0H3.661C2.993 0 2.475 0.0509999 2.104 0.152C1.734 0.254 1.403 0.438 1.111 0.704C0.37 1.371 0 2.386 0 3.747C0 5.405 0.563 6.576 1.689 7.259C2.279 7.619 3.077 7.799 4.084 7.799H6.329V6.571H4.31C3.768 6.571 3.349 6.529 3.051 6.446C2.754 6.362 2.498 6.216 2.284 6.008C1.961 5.689 1.75 5.225 1.65 4.615H6.329Z" transform="translate(418.211 149.042) scale(1.33333 -1.33333)" fill="#EAC011"/>
<path d="M1.706 9.317V1.361H4.428C5.638 1.361 6.486 1.713 6.971 2.417C7.414 3.059 7.636 3.989 7.636 5.21C7.636 6.592 7.38 7.64 6.869 8.355C6.624 8.699 6.304 8.945 5.911 9.094C5.517 9.243 4.984 9.317 4.311 9.317H1.706ZM0 10.678H4.1C5.231 10.678 6.06 10.597 6.587 10.436C7.568 10.128 8.332 9.437 8.879 8.362C9.26 7.606 9.451 6.631 9.451 5.437C9.451 3.053 8.804 1.452 7.51 0.633C7.114 0.383 6.697 0.215001 6.259 0.129001C5.821 0.0430007 5.153 0 4.256 0H0V10.678Z" transform="translate(237.505 174.676) scale(1.33333 -1.33333)" fill="#EAC011"/>
<path d="M6.329 4.615V3.387H1.651C1.641 2.683 1.821 2.138 2.191 1.752C2.379 1.554 2.611 1.417 2.887 1.341C3.163 1.265 3.562 1.228 4.084 1.228H6.329V0H3.662C2.994 0 2.475 0.0509999 2.105 0.152C1.735 0.254 1.404 0.438 1.111 0.704C0.371 1.371 0 2.386 0 3.747C0 5.405 0.564 6.576 1.69 7.259C2.28 7.619 3.078 7.799 4.084 7.799H6.329V6.571H4.311C3.768 6.571 3.349 6.529 3.052 6.446C2.754 6.362 2.499 6.216 2.285 6.008C1.961 5.689 1.75 5.225 1.651 4.615H6.329Z" transform="translate(251.575 174.675) scale(1.33333 -1.33333)" fill="#EAC011"/>
<path d="M6.813 7.799V6.57H3.3C2.764 6.57 2.415 6.559 2.256 6.535C2.097 6.512 1.971 6.451 1.877 6.352C1.694 6.169 1.603 5.874 1.603 5.467C1.603 5.076 1.701 4.821 1.896 4.701C2.092 4.581 2.511 4.521 3.152 4.521H4.209C5.069 4.511 5.598 4.495 5.796 4.474C5.995 4.453 6.182 4.388 6.36 4.278C6.881 3.955 7.142 3.306 7.142 2.331C7.142 1.261 6.808 0.56 6.14 0.226C5.958 0.132 5.744 0.0709997 5.499 0.0429997C5.253 0.0139997 4.824 0 4.209 0H0.085V1.228H3.833C4.552 1.228 4.993 1.261 5.155 1.329C5.411 1.439 5.538 1.731 5.538 2.206C5.538 2.706 5.379 2.996 5.061 3.074C4.93 3.111 4.555 3.129 3.934 3.129H3.3C2.466 3.129 1.9 3.153 1.603 3.203C1.306 3.253 1.048 3.368 0.829 3.551C0.276 3.994 0 4.641 0 5.491C0 5.945 0.0910002 6.349 0.273 6.704C0.456 7.058 0.706 7.319 1.024 7.486C1.421 7.695 2.044 7.799 2.894 7.799H6.813Z" transform="translate(261.84 174.675) scale(1.33333 -1.33333)" fill="#EAC011"/>
<path d="M6.329 4.615V3.387H1.65C1.641 2.683 1.82 2.138 2.19 1.752C2.378 1.554 2.61 1.417 2.887 1.341C3.163 1.265 3.562 1.228 4.084 1.228H6.329V0H3.661C2.994 0 2.475 0.0509999 2.104 0.152C1.734 0.254 1.403 0.438 1.111 0.704C0.37 1.371 0 2.386 0 3.747C0 5.405 0.563 6.576 1.69 7.259C2.279 7.619 3.077 7.799 4.084 7.799H6.329V6.571H4.31C3.768 6.571 3.349 6.529 3.051 6.446C2.754 6.362 2.498 6.216 2.284 6.008C1.961 5.689 1.75 5.225 1.65 4.615H6.329Z" transform="translate(272.968 174.675) scale(1.33333 -1.33333)" fill="#EAC011"/>
<path d="M0 7.799H3.606C4.29 7.799 4.836 7.724 5.245 7.576C5.654 7.427 5.984 7.181 6.235 6.837C6.574 6.399 6.749 5.669 6.759 4.646V0H5.21V4.482C5.21 5.264 5.075 5.808 4.808 6.113C4.538 6.418 4.058 6.57 3.364 6.57H1.549V0H0V7.799Z" transform="translate(283.847 174.675) scale(1.33333 -1.33333)" fill="#EAC011"/>
<path d="M4.076 2.01L6.626 7.799H8.253L4.646 0H3.403L0 7.799H1.689L4.076 2.01Z" transform="translate(293.808 174.675) scale(1.33333 -1.33333)" fill="#EAC011"/>
<path d="M3.974 6.688C3.212 6.688 2.627 6.451 2.217 5.977C1.808 5.502 1.604 4.826 1.604 3.95C1.604 3.116 1.771 2.49 2.104 2.073C2.527 1.546 3.139 1.283 3.943 1.283C5.554 1.283 6.36 2.159 6.36 3.911C6.36 4.803 6.155 5.486 5.746 5.96C5.336 6.435 4.745 6.678 3.974 6.688ZM4.068 7.971C5.32 7.971 6.292 7.611 6.986 6.892C7.638 6.219 7.963 5.238 7.963 3.95C7.963 2.751 7.632 1.802 6.97 1.103C6.266 0.368 5.27 0 3.982 0C2.625 0 1.598 0.376 0.9 1.126C0.3 1.763 0 2.67 0 3.849C0 5.09 0.336 6.086 1.009 6.837C1.677 7.583 2.697 7.961 4.068 7.971" transform="translate(305.188 174.79) scale(1.33333 -1.33333)" fill="#EAC011"/>
<path d="M2.06534 14.2373H0V0H2.06534V14.2373Z" transform="translate(318.038 160.438)" fill="#EAC011"/>
<path d="M4.076 2.01L6.626 7.799H8.253L4.646 0H3.403L0 7.799H1.689L4.076 2.01Z" transform="translate(321.657 174.675) scale(1.33333 -1.33333)" fill="#EAC011"/>
<path d="M0 3.83734H2.06534V14.236H0V3.83734ZM0 0H2.06534V2.15868H0V0Z" transform="translate(334.299 160.439)" fill="#EAC011"/>
<path d="M0 7.799H6.892C7.841 7.799 8.48 7.766 8.813 7.701C9.144 7.636 9.452 7.483 9.739 7.243C10.026 6.998 10.226 6.7 10.337 6.348C10.449 5.996 10.506 5.486 10.506 4.819V0H8.957V4.819C8.957 5.47 8.825 5.925 8.563 6.183C8.298 6.442 7.838 6.57 7.182 6.57H5.977V0H4.428V6.57H1.549V0H0V7.799Z" transform="translate(339.326 174.675) scale(1.33333 -1.33333)" fill="#EAC011"/>
<path d="M6.329 4.615V3.387H1.65C1.641 2.683 1.82 2.138 2.19 1.752C2.378 1.554 2.61 1.417 2.887 1.341C3.163 1.265 3.561 1.228 4.084 1.228H6.329V0H3.661C2.993 0 2.475 0.0509999 2.104 0.152C1.734 0.254 1.403 0.438 1.111 0.704C0.37 1.371 0 2.386 0 3.747C0 5.405 0.563 6.576 1.689 7.259C2.279 7.619 3.077 7.799 4.084 7.799H6.329V6.571H4.31C3.767 6.571 3.349 6.529 3.051 6.446C2.754 6.362 2.498 6.216 2.284 6.008C1.961 5.689 1.75 5.225 1.65 4.615H6.329Z" transform="translate(355.41 174.675) scale(1.33333 -1.33333)" fill="#EAC011"/>
<path d="M0 7.799H3.606C4.289 7.799 4.836 7.724 5.245 7.576C5.654 7.427 5.984 7.181 6.234 6.837C6.573 6.399 6.748 5.669 6.759 4.646V0H5.21V4.482C5.21 5.264 5.075 5.808 4.808 6.113C4.538 6.418 4.058 6.57 3.363 6.57H1.549V0H0V7.799Z" transform="translate(366.289 174.675) scale(1.33333 -1.33333)" fill="#EAC011"/>
<path d="M1.486 7.799V10.677H3.035V7.799H5.311V6.57H3.035V2.471C3.035 2.138 3.05 1.901 3.082 1.759C3.113 1.619 3.175 1.512 3.269 1.439C3.431 1.298 3.806 1.228 4.396 1.228H5.311V0H3.809C3.298 0 2.919 0.0309999 2.672 0.0929999C2.423 0.156 2.206 0.278 2.017 0.461C1.82 0.649 1.681 0.881 1.603 1.157C1.525 1.434 1.486 1.827 1.486 2.339V6.57H0V7.799H1.486Z" transform="translate(377.001 174.675) scale(1.33333 -1.33333)" fill="#EAC011"/>
<path d="M3.974 6.688C3.212 6.688 2.627 6.451 2.218 5.977C1.808 5.502 1.604 4.826 1.604 3.95C1.604 3.116 1.771 2.49 2.105 2.073C2.527 1.546 3.14 1.283 3.943 1.283C5.554 1.283 6.36 2.159 6.36 3.911C6.36 4.803 6.155 5.486 5.746 5.96C5.336 6.435 4.746 6.678 3.974 6.688ZM4.068 7.971C5.32 7.971 6.292 7.611 6.986 6.892C7.638 6.219 7.964 5.238 7.964 3.95C7.964 2.751 7.632 1.802 6.97 1.103C6.266 0.368 5.27 0 3.982 0C2.626 0 1.599 0.376 0.9 1.126C0.3 1.763 0 2.67 0 3.849C0 5.09 0.336 6.086 1.009 6.837C1.677 7.583 2.697 7.961 4.068 7.971" transform="translate(385.052 174.79) scale(1.33333 -1.33333)" fill="#EAC011"/>
<path d="M5.711 1.228V6.571H4.045C3.523 6.571 3.111 6.511 2.809 6.391C2.506 6.271 2.256 6.068 2.058 5.781C1.755 5.343 1.605 4.722 1.605 3.919C1.605 2.934 1.769 2.238 2.097 1.834C2.426 1.43 2.988 1.228 3.786 1.228H5.711ZM5.711 7.799V10.678H7.26V0H3.794C3.111 0 2.567 0.052 2.164 0.156C1.759 0.261 1.414 0.438 1.127 0.688C0.777 0.991 0.502 1.415 0.302 1.959C0.101 2.504 0 3.1 0 3.747C0 4.561 0.151 5.306 0.454 5.984C0.735 6.621 1.151 7.082 1.701 7.369C2.252 7.656 2.991 7.799 3.92 7.799H5.711Z" transform="translate(402.512 174.676) scale(1.33333 -1.33333)" fill="#EAC011"/>
<path d="M6.329 4.615V3.387H1.651C1.641 2.683 1.82 2.138 2.19 1.752C2.379 1.554 2.61 1.417 2.887 1.341C3.163 1.265 3.562 1.228 4.084 1.228H6.329V0H3.661C2.994 0 2.475 0.0509999 2.104 0.152C1.734 0.254 1.403 0.438 1.111 0.704C0.371 1.371 0 2.386 0 3.747C0 5.405 0.563 6.576 1.69 7.259C2.279 7.619 3.077 7.799 4.084 7.799H6.329V6.571H4.31C3.768 6.571 3.349 6.529 3.051 6.446C2.754 6.362 2.498 6.216 2.284 6.008C1.961 5.689 1.75 5.225 1.651 4.615H6.329Z" transform="translate(414.424 174.675) scale(1.33333 -1.33333)" fill="#EAC011"/>
<path d="M0.383 0V1.361H4.999C5.708 1.361 6.217 1.45 6.525 1.627C6.993 1.898 7.229 2.36 7.229 3.012C7.229 3.841 6.923 4.354 6.313 4.553C6.042 4.642 5.497 4.686 4.678 4.686H3.786C2.556 4.686 1.674 4.855 1.142 5.194C0.381 5.674 0 6.433 0 7.471C0 8.154 0.175 8.759 0.525 9.286C0.863 9.802 1.303 10.163 1.842 10.369C2.382 10.575 3.148 10.678 4.138 10.678H8.534V9.317H4.138C3.674 9.317 3.318 9.294 3.071 9.25C2.822 9.206 2.608 9.126 2.425 9.012C2.019 8.751 1.815 8.318 1.815 7.713C1.815 7.181 1.993 6.8 2.351 6.571C2.708 6.341 3.304 6.227 4.138 6.227H4.779C5.693 6.227 6.373 6.185 6.821 6.102C7.27 6.018 7.64 5.867 7.933 5.648C8.281 5.382 8.554 5.022 8.75 4.568C8.946 4.115 9.043 3.614 9.043 3.066C9.043 1.804 8.55 0.918 7.565 0.407C7.257 0.25 6.908 0.143 6.52 0.086C6.132 0.029 5.552 0 4.779 0H0.383Z" transform="translate(429.934 174.676) scale(1.33333 -1.33333)" fill="#EAC011"/>
<path d="M3.974 6.688C3.212 6.688 2.626 6.451 2.217 5.977C1.808 5.502 1.604 4.826 1.604 3.95C1.604 3.116 1.771 2.49 2.104 2.073C2.527 1.546 3.139 1.283 3.943 1.283C5.554 1.283 6.36 2.159 6.36 3.911C6.36 4.803 6.155 5.486 5.746 5.96C5.336 6.435 4.745 6.678 3.974 6.688ZM4.068 7.971C5.32 7.971 6.292 7.611 6.986 6.892C7.637 6.219 7.963 5.238 7.963 3.95C7.963 2.751 7.632 1.802 6.97 1.103C6.266 0.368 5.27 0 3.982 0C2.625 0 1.598 0.376 0.9 1.126C0.3 1.763 0 2.67 0 3.849C0 5.09 0.336 6.086 1.009 6.837C1.676 7.583 2.697 7.961 4.068 7.971" transform="translate(443.515 174.79) scale(1.33333 -1.33333)" fill="#EAC011"/>
<path d="M1.377 6.571H0V7.8H1.377V8.144C1.377 9.041 1.575 9.687 1.972 10.084C2.368 10.48 3.015 10.678 3.912 10.678H5.516V9.45H4.115C3.641 9.45 3.323 9.369 3.164 9.207C3.005 9.046 2.926 8.72 2.926 8.23V7.8H5.383V6.571H2.926V0H1.377V6.571Z" transform="translate(455.29 174.676) scale(1.33333 -1.33333)" fill="#EAC011"/>
<path d="M1.486 7.799V10.677H3.035V7.799H5.311V6.57H3.035V2.471C3.035 2.138 3.05 1.901 3.082 1.759C3.113 1.619 3.175 1.512 3.269 1.439C3.431 1.298 3.806 1.228 4.396 1.228H5.311V0H3.809C3.298 0 2.919 0.0309999 2.672 0.0929999C2.423 0.156 2.206 0.278 2.017 0.461C1.819 0.649 1.681 0.881 1.603 1.157C1.525 1.434 1.486 1.827 1.486 2.339V6.57H0V7.799H1.486Z" transform="translate(463.531 174.675) scale(1.33333 -1.33333)" fill="#EAC011"/>
<path d="M4.529 1.228V7.799H6.078V1.228H8.957V7.799H10.506V0H3.246C2.417 0 1.836 0.062 1.502 0.187C0.98 0.386 0.599 0.695 0.359 1.115C0.12 1.535 0 2.102 0 2.816L0.0079999 3.504V7.799H1.556V3.325C1.556 2.792 1.568 2.432 1.591 2.241C1.615 2.051 1.671 1.888 1.759 1.752C1.875 1.559 2.045 1.424 2.272 1.345C2.499 1.267 2.823 1.228 3.246 1.228H4.529Z" transform="translate(472.532 174.676) scale(1.33333 -1.33333)" fill="#EAC011"/>
<path d="M5.727 3.528H3.137C2.689 3.528 2.355 3.481 2.136 3.387C1.782 3.231 1.604 2.892 1.604 2.37C1.604 1.953 1.72 1.658 1.952 1.486C2.184 1.314 2.58 1.228 3.137 1.228H5.727V3.528ZM5.727 4.757C5.727 5.549 5.626 6.049 5.425 6.258C5.224 6.467 4.739 6.571 3.966 6.571H0.297V7.799H4.303C4.997 7.799 5.529 7.746 5.899 7.639C6.269 7.532 6.564 7.345 6.783 7.08C6.97 6.855 7.099 6.59 7.17 6.282C7.24 5.974 7.276 5.523 7.276 4.928V0H3.332C2.592 0 2.094 0.0260001 1.838 0.0780001C1.245 0.193 0.789 0.446 0.474 0.837C0.158 1.228 0 1.732 0 2.347C0 2.8 0.0860004 3.209 0.258 3.571C0.431 3.934 0.67 4.211 0.978 4.404C1.354 4.639 2.011 4.757 2.95 4.757H5.727Z" transform="translate(488.74 174.676) scale(1.33333 -1.33333)" fill="#EAC011"/>
<path d="M0 7.799H2.002C2.644 7.799 3.142 7.755 3.496 7.666C3.851 7.577 4.15 7.424 4.396 7.204C4.631 6.99 4.795 6.724 4.889 6.406C4.982 6.088 5.029 5.632 5.029 5.037V4.278H3.566V5.037C3.566 5.606 3.469 5.992 3.273 6.195C3.077 6.399 2.709 6.5 2.166 6.5H1.549V0H0V7.799Z" transform="translate(501.257 174.675) scale(1.33333 -1.33333)" fill="#EAC011"/>
<path d="M6.328 4.615V3.387H1.65C1.64 2.683 1.819 2.138 2.19 1.752C2.378 1.554 2.609 1.417 2.886 1.341C3.163 1.265 3.561 1.228 4.083 1.228H6.328V0H3.661C2.993 0 2.474 0.0509999 2.103 0.152C1.733 0.254 1.402 0.438 1.11 0.704C0.37 1.371 0 2.386 0 3.747C0 5.405 0.562 6.576 1.689 7.259C2.278 7.619 3.076 7.799 4.083 7.799H6.328V6.571H4.309C3.767 6.571 3.348 6.529 3.051 6.446C2.753 6.362 2.498 6.216 2.284 6.008C1.961 5.689 1.749 5.225 1.65 4.615H6.328Z" transform="translate(509.268 174.675) scale(1.33333 -1.33333)" fill="#EAC011"/>
<path d="M346.815 3.56001H0V0H346.815V3.56001Z" transform="translate(170.108 116.069)" fill="#070742"/>
<path d="M39.937 0L38.351 0.222L45.365 50.444L0 55.481L0.177002 57.073L47.18 51.855L39.937 0Z" transform="translate(117.916 117.997) scale(1.33333 -1.33333)" fill="#EAC011"/>
<path d="M8.727 24.267L58.654 2.072L89.755 60.946L41.911 73.14L50.728 115.996L1.707 86.132L8.727 24.267ZM59.371 0L7.239 23.176L0 86.968L53.039 119.279L43.788 74.315L92.122 61.996L59.371 0Z" transform="translate(48.8563 199.811) scale(1.33333 -1.33333)" fill="#EAC011"/>
<path d="M0.921 0L0 1.311L55.218 40.093L56.139 38.782L0.921 0Z" transform="translate(105.374 102.381) scale(1.33333 -1.33333)" fill="#EAC011"/>
<path d="M66.79 0L24.977 12.768L0.270004 8.534L0 10.113L25.081 14.411L67.258 1.532L66.79 0Z" transform="translate(16.6232 102.529) scale(1.33333 -1.33333)" fill="#EAC011"/>
<path d="M33.821 27.916L47.217 1.723L82.945 5.985L67.369 76.032L33.821 27.916ZM46.299 0L32.249 27.472L8.81 47.313L0 86.749L39.563 135.086L77.042 122.656L76.537 121.135L40.105 133.218L1.733 86.338L10.256 48.188L32.735 29.16L68.141 79.94L84.893 4.604L46.299 0Z" transform="translate(15.6483 205.488) scale(1.33333 -1.33333)" fill="#EAC011"/>
<path d="M19.651 9.825C19.651 4.399 15.252 0 9.826 0C4.4 0 0 4.399 0 9.825C0 15.252 4.4 19.651 9.826 19.651C15.252 19.651 19.651 15.252 19.651 9.825Z" transform="translate(36.8939 97.5103) scale(1.33333 -1.33333)" fill="white"/>
<path d="M14.258 7.129C14.258 3.192 11.067 0 7.129 0C3.192 0 0 3.192 0 7.129C0 11.067 3.192 14.258 7.129 14.258C11.067 14.258 14.258 11.067 14.258 7.129Z" transform="translate(170.107 59.3029) scale(1.33333 -1.33333)" fill="white"/>
<path d="M14.258 7.129C14.258 3.191 11.066 0 7.129 0C3.192 0 0 3.191 0 7.129C0 11.066 3.192 14.258 7.129 14.258C11.066 14.258 14.258 11.066 14.258 7.129Z" transform="translate(118.034 207.934) scale(1.33333 -1.33333)" fill="white"/>
<path d="M32.232 16.116C32.232 7.216 25.017 0 16.116 0C7.215 0 0 7.216 0 16.116C0 25.017 7.215 32.232 16.116 32.232C25.017 32.232 32.232 25.017 32.232 16.116Z" transform="translate(96.5463 64.4489) scale(1.33333 -1.33333)" fill="white"/>
<path d="M11.19 5.595C11.19 2.505 8.685 0 5.595 0C2.505 0 0 2.505 0 5.595C0 8.685 2.505 11.19 5.595 11.19C8.685 11.19 11.19 8.685 11.19 5.595Z" transform="translate(20.8992 149.28) scale(1.33333 -1.33333)" fill="white"/>
<path d="M10.856 5.428C10.856 2.43 8.426 0 5.428 0C2.43 0 0 2.43 0 5.428C0 8.426 2.43 10.856 5.428 10.856C8.426 10.856 10.856 8.426 10.856 5.428Z" transform="translate(98.7513 108.745) scale(1.33333 -1.33333)" fill="white"/>
<path d="M54.267 27.133C54.267 12.148 42.119 0 27.134 0C12.148 0 0 12.148 0 27.133C0 42.118 12.148 54.266 27.134 54.266C42.119 54.266 54.267 42.118 54.267 27.133Z" transform="translate(133.929 154.026) scale(1.33333 -1.33333)" fill="white"/>
</svg>
