<svg width="230" height="230" viewBox="0 0 230 230" fill="none" xmlns="http://www.w3.org/2000/svg">
<path d="M172.5 86.2504C172.5 38.6152 133.885 0 86.2504 0C38.6159 0 0 38.6152 0 86.2504C0 133.885 38.6159 172.5 86.2504 172.5C133.885 172.5 172.5 133.885 172.5 86.2504Z" transform="translate(0 230) scale(1.33333 -1.33333)" fill="black"/>
<path d="M40.562 0L38.9505 0.225411L46.0755 51.234L0 56.3506L0.179209 57.9676L47.9186 52.667L40.562 0Z" transform="translate(119.764 119.845) scale(1.33333 -1.33333)" fill="white"/>
<path d="M8.86382 24.6475L59.5728 2.105L91.1618 61.9011L42.5676 74.2861L51.5224 117.813L1.73468 87.4817L8.86382 24.6475ZM60.3015 0L7.35244 23.5386L0 88.3309L53.8703 121.148L44.4745 75.479L93.565 62.9673L60.3015 0Z" transform="translate(49.6222 202.94) scale(1.33333 -1.33333)" fill="white"/>
<path d="M0.935244 0L0 1.33076L56.0824 40.7209L57.0177 39.3895L0.935244 0Z" transform="translate(107.026 103.984) scale(1.33333 -1.33333)" fill="white"/>
<path d="M67.8367 0L25.3678 12.9674L0.275111 8.66781L0 10.2723L25.4742 14.6363L68.312 1.55687L67.8367 0Z" transform="translate(16.8839 104.134) scale(1.33333 -1.33333)" fill="white"/>
<path d="M34.3513 28.3534L47.9572 1.75008L84.2441 6.07839L68.4247 77.2227L34.3513 28.3534ZM47.024 0L32.7545 27.9019L8.94852 48.0545L0 88.1075L40.1833 137.202L78.249 124.577L77.7365 123.033L40.7335 135.304L1.76058 87.6903L10.4172 48.9435L33.2481 29.6163L69.2094 81.1919L86.223 4.67552L47.024 0Z" transform="translate(15.8937 208.707) scale(1.33333 -1.33333)" fill="white"/>
<path d="M19.9586 9.97897C19.9586 4.46761 15.491 0 9.97967 0C4.46831 0 0 4.46761 0 9.97897C0 15.4903 4.46831 19.9586 9.97967 19.9586C15.491 19.9586 19.9586 15.4903 19.9586 9.97897Z" transform="translate(37.4729 99.0374) scale(1.33333 -1.33333)" fill="white"/>
<path d="M14.4816 7.24044C14.4816 3.24185 11.2397 0 7.24044 0C3.24185 0 0 3.24185 0 7.24044C0 11.2397 3.24185 14.4816 7.24044 14.4816C11.2397 14.4816 14.4816 11.2397 14.4816 7.24044Z" transform="translate(172.773 60.2313) scale(1.33333 -1.33333)" fill="white"/>
<path d="M14.4816 7.24044C14.4816 3.24185 11.2397 0 7.24114 0C3.24185 0 0 3.24185 0 7.24044C0 11.2397 3.24185 14.4816 7.24114 14.4816C11.2397 14.4816 14.4816 11.2397 14.4816 7.24044Z" transform="translate(119.884 211.191) scale(1.33333 -1.33333)" fill="white"/>
<path d="M32.7363 16.3682C32.7363 7.32864 25.4077 0 16.3682 0C7.32864 0 0 7.32864 0 16.3682C0 25.4084 7.32864 32.7363 16.3682 32.7363C25.4077 32.7363 32.7363 25.4084 32.7363 16.3682Z" transform="translate(98.0599 65.4577) scale(1.33333 -1.33333)" fill="white"/>
<path d="M11.365 5.68287C11.365 2.54462 8.82111 0 5.68287 0C2.54392 0 0 2.54462 0 5.68287C0 8.82042 2.54392 11.365 5.68287 11.365C8.82111 11.365 11.365 8.82042 11.365 5.68287Z" transform="translate(21.2273 151.618) scale(1.33333 -1.33333)" fill="white"/>
<path d="M11.0255 5.51346C11.0255 2.46832 8.5572 0 5.51276 0C2.46762 0 0 2.46832 0 5.51346C0 8.5579 2.46762 11.0262 5.51276 11.0262C8.5572 11.0262 11.0255 8.5579 11.0255 5.51346Z" transform="translate(100.3 110.448) scale(1.33333 -1.33333)" fill="white"/>
<path d="M55.1171 27.5582C55.1171 12.3381 42.779 0 27.5589 0C12.3388 0 0 12.3381 0 27.5582C0 42.7783 12.3388 55.1164 27.5589 55.1164C42.779 55.1164 55.1171 42.7783 55.1171 27.5582Z" transform="translate(136.028 156.439) scale(1.33333 -1.33333)" fill="white"/>
</svg>
