<svg width="230" height="230" viewBox="0 0 230 230" fill="none" xmlns="http://www.w3.org/2000/svg">
<path d="M172.5 86.25C172.5 38.6154 133.885 0 86.2504 0C38.6159 0 0 38.6154 0 86.25C0 133.885 38.6159 172.5 86.2504 172.5C133.885 172.5 172.5 133.885 172.5 86.25Z" transform="translate(0 230) scale(1.33333 -1.33333)" fill="#070742"/>
<path d="M40.562 0L38.9512 0.225412L46.0755 51.2342L0 56.3501L0.179209 57.9672L47.9186 52.6672L40.562 0Z" transform="translate(119.764 119.845) scale(1.33333 -1.33333)" fill="#EAC011"/>
<path d="M8.86312 24.6469L59.5721 2.10361L91.1604 61.9007L42.5669 74.2857L51.5217 117.813L1.73398 87.4814L8.86312 24.6469ZM60.3008 0L7.35175 23.5387L0 88.3305L53.8696 121.148L44.4738 75.4792L93.5643 62.9675L60.3008 0Z" transform="translate(49.6232 202.94) scale(1.33333 -1.33333)" fill="#EAC011"/>
<path d="M0.935244 0L0 1.33147L56.0824 40.7211L57.0184 39.3903L0.935244 0Z" transform="translate(107.027 103.985) scale(1.33333 -1.33333)" fill="#EAC011"/>
<path d="M67.836 0L25.3671 12.9668L0.274412 8.66784L0 10.2716L25.4735 14.6363L68.3113 1.55618L67.836 0Z" transform="translate(16.885 104.134) scale(1.33333 -1.33333)" fill="#EAC011"/>
<path d="M34.3513 28.3528L47.9572 1.75009L84.2441 6.07841L68.4247 77.2223L34.3513 28.3528ZM47.024 0L32.7545 27.902L8.94852 48.0547L0 88.1079L40.1833 137.202L78.249 124.578L77.7365 123.033L40.7335 135.305L1.76058 87.69L10.4172 48.943L33.2481 29.6157L69.2094 81.1922L86.223 4.67554L47.024 0Z" transform="translate(15.8936 208.707) scale(1.33333 -1.33333)" fill="#EAC011"/>
<path d="M19.9586 9.97971C19.9586 4.46833 15.491 0 9.97967 0C4.46831 0 0 4.46833 0 9.97971C0 15.4911 4.46831 19.9587 9.97967 19.9587C15.491 19.9587 19.9586 15.4911 19.9586 9.97971Z" transform="translate(37.473 99.0382) scale(1.33333 -1.33333)" fill="white"/>
<path d="M14.4816 7.24117C14.4816 3.24187 11.2397 0 7.24114 0C3.24185 0 0 3.24187 0 7.24117C0 11.2398 3.24185 14.4816 7.24114 14.4816C11.2397 14.4816 14.4816 11.2398 14.4816 7.24117Z" transform="translate(172.772 60.232) scale(1.33333 -1.33333)" fill="white"/>
<path d="M14.4816 7.24047C14.4816 3.24187 11.2397 0 7.24114 0C3.24185 0 0 3.24187 0 7.24047C0 11.2391 3.24185 14.4809 7.24114 14.4809C11.2397 14.4809 14.4816 11.2391 14.4816 7.24047Z" transform="translate(119.884 211.192) scale(1.33333 -1.33333)" fill="white"/>
<path d="M32.7363 16.3682C32.7363 7.32797 25.4077 0 16.3682 0C7.32864 0 0 7.32797 0 16.3682C0 25.4085 7.32864 32.7365 16.3682 32.7365C25.4077 32.7365 32.7363 25.4085 32.7363 16.3682Z" transform="translate(98.0599 65.458) scale(1.33333 -1.33333)" fill="white"/>
<path d="M11.365 5.68219C11.365 2.54393 8.82111 0 5.68287 0C2.54392 0 0 2.54393 0 5.68219C0 8.82045 2.54392 11.3651 5.68287 11.3651C8.82111 11.3651 11.365 8.82045 11.365 5.68219Z" transform="translate(21.2275 151.618) scale(1.33333 -1.33333)" fill="white"/>
<path d="M11.0255 5.51278C11.0255 2.46833 8.5572 0 5.51276 0C2.46762 0 0 2.46833 0 5.51278C0 8.55794 2.46762 11.0256 5.51276 11.0256C8.5572 11.0256 11.0255 8.55794 11.0255 5.51278Z" transform="translate(100.3 110.447) scale(1.33333 -1.33333)" fill="white"/>
<path d="M73.4894 36.7453C73.4894 57.0389 57.0387 73.4897 36.7443 73.4897C16.4517 73.4897 0 57.0389 0 36.7453C0 16.4518 16.4517 0 36.7443 0C57.0387 0 73.4894 16.4518 73.4894 36.7453Z" transform="translate(136.028 82.9497)" fill="white"/>
</svg>
