<svg width="230" height="230" viewBox="0 0 230 230" fill="none" xmlns="http://www.w3.org/2000/svg">
<path d="M86.2504 169.306C40.4528 169.306 3.19425 132.047 3.19425 86.25C3.19425 40.453 40.4528 3.19427 86.2504 3.19427C132.047 3.19427 169.306 40.453 169.306 86.25C169.306 132.047 132.047 169.306 86.2504 169.306ZM86.2504 0C38.6915 0 0 38.6917 0 86.25C0 133.809 38.6915 172.5 86.2504 172.5C133.808 172.5 172.5 133.809 172.5 86.25C172.5 38.6917 133.808 0 86.2504 0Z" transform="translate(0 230) scale(1.33333 -1.33333)" fill="black"/>
<path d="M39.8109 0L38.2295 0.220511L45.2221 50.2857L0 55.307L0.176408 56.8933L47.031 51.692L39.8109 0Z" transform="translate(119.676 119.755) scale(1.33333 -1.33333)" fill="black"/>
<path d="M8.69931 24.1911L58.4696 2.0658L89.4726 60.7547L41.7787 72.9108L50.5683 115.631L1.70178 85.8622L8.69931 24.1911ZM59.1843 0L7.21524 23.1026L0 86.6952L52.8721 118.905L43.6499 74.082L91.8317 61.8019L59.1843 0Z" transform="translate(50.8333 201.312) scale(1.33333 -1.33333)" fill="black"/>
<path d="M0.918443 0L0 1.30697L55.045 39.9671L55.9627 38.6609L0.918443 0Z" transform="translate(107.173 104.188) scale(1.33333 -1.33333)" fill="black"/>
<path d="M66.5801 0L24.8981 12.728L0.269514 8.50753L0 10.0812L25.0017 14.3654L67.0471 1.52818L66.5801 0Z" transform="translate(18.7012 104.336) scale(1.33333 -1.33333)" fill="black"/>
<path d="M33.715 27.8285L47.0688 1.71789L82.6844 5.9664L67.1577 75.7936L33.715 27.8285ZM46.1532 0L32.1476 27.3861L8.78261 47.1649L0 86.4768L39.4392 134.662L76.7999 122.271L76.2973 120.755L39.9789 132.8L1.72838 86.0666L10.224 48.0372L32.6327 29.0683L67.9277 79.6893L84.6263 4.58943L46.1532 0Z" transform="translate(17.7288 206.972) scale(1.33333 -1.33333)" fill="black"/>
<path d="M19.589 9.7949C19.589 4.38502 15.204 0 9.79416 0C4.38501 0 0 4.38502 0 9.7949C0 15.2041 4.38501 19.5891 9.79416 19.5891C15.204 19.5891 19.589 15.2041 19.589 9.7949Z" transform="translate(38.9087 99.3333) scale(1.33333 -1.33333)" fill="black"/>
<path d="M14.2135 7.10676C14.2135 3.18166 11.0318 0 7.10673 0C3.18165 0 0 3.18166 0 7.10676C0 11.0312 3.18165 14.2128 7.10673 14.2128C11.0318 14.2128 14.2135 11.0312 14.2135 7.10676Z" transform="translate(171.703 61.245) scale(1.33333 -1.33333)" fill="black"/>
<path d="M14.2135 7.10606C14.2135 3.18166 11.0318 0 7.10673 0C3.18165 0 0 3.18166 0 7.10606C0 11.0305 3.18165 14.2128 7.10673 14.2128C11.0318 14.2128 14.2135 11.0305 14.2135 7.10606Z" transform="translate(119.793 209.41) scale(1.33333 -1.33333)" fill="black"/>
<path d="M32.1301 16.0651C32.1301 7.19287 24.9373 0 16.0651 0C7.19214 0 0 7.19287 0 16.0651C0 24.9381 7.19214 32.1302 16.0651 32.1302C24.9373 32.1302 32.1301 24.9381 32.1301 16.0651Z" transform="translate(98.3738 66.3751) scale(1.33333 -1.33333)" fill="black"/>
<path d="M11.1543 5.57718C11.1543 2.49773 8.65731 0 5.57716 0C2.49702 0 0 2.49773 0 5.57718C0 8.65734 2.49702 11.1551 5.57716 11.1551C8.65731 11.1551 11.1543 8.65734 11.1543 5.57718Z" transform="translate(22.964 150.94) scale(1.33333 -1.33333)" fill="black"/>
<path d="M10.8211 5.41058C10.8211 2.42142 8.39899 0 5.41055 0C2.42211 0 0 2.42142 0 5.41058C0 8.39903 2.42211 10.8212 5.41055 10.8212C8.39899 10.8212 10.8211 8.39903 10.8211 5.41058Z" transform="translate(100.572 110.531) scale(1.33333 -1.33333)" fill="black"/>
<path d="M54.0964 27.048C54.0964 12.1099 41.9866 0 27.0479 0C12.1099 0 0 12.1099 0 27.048C0 41.9867 12.1099 54.0967 27.0479 54.0967C41.9866 54.0967 54.0964 41.9867 54.0964 27.048Z" transform="translate(135.639 155.672) scale(1.33333 -1.33333)" fill="black"/>
</svg>
